<svg xmlns="http://www.w3.org/2000/svg" xmlns:xlink="http://www.w3.org/1999/xlink" contentStyleType="text/css" data-diagram-type="SEQUENCE" height="505px" preserveAspectRatio="none" style="width:564px;height:505px;background:#FFFFFF;" version="1.1" viewBox="0 0 564 505" width="564px" zoomAndPan="magnify"><defs/><g><rect fill="none" height="250.6719" style="stroke:#000000;stroke-width:1.5;" width="547.1226" x="10" y="156.5625"/><g><title>Beneficiario</title><rect fill="#000000" fill-opacity="0.00000" height="342.9375" width="8" x="60.4497" y="81.2969"/><line style="stroke:#181818;stroke-width:0.5;stroke-dasharray:5.0,5.0;" x1="64" x2="64" y1="81.2969" y2="424.2344"/></g><g><title>PSP Beneficiario</title><rect fill="#000000" fill-opacity="0.00000" height="342.9375" width="8" x="178.46" y="81.2969"/><line style="stroke:#181818;stroke-width:0.5;stroke-dasharray:5.0,5.0;" x1="181.8994" x2="181.8994" y1="81.2969" y2="424.2344"/></g><g><title>PSP Pagador</title><rect fill="#000000" fill-opacity="0.00000" height="342.9375" width="8" x="309.3354" y="81.2969"/><line style="stroke:#181818;stroke-width:0.5;stroke-dasharray:5.0,5.0;" x1="312.377" x2="312.377" y1="81.2969" y2="424.2344"/></g><g><title>Sistema</title><rect fill="#000000" fill-opacity="0.00000" height="342.9375" width="8" x="507.9277" y="81.2969"/><line style="stroke:#181818;stroke-width:0.5;stroke-dasharray:5.0,5.0;" x1="511.7329" x2="511.7329" y1="81.2969" y2="424.2344"/></g><g class="participant participant-head" data-participant="Beneficiario"><text fill="#000000" font-family="sans-serif" font-size="14" lengthAdjust="spacing" textLength="82.8994" x="20" y="77.9951">Beneficiario</text><ellipse cx="64.4497" cy="13.5" fill="#E2E2F0" rx="8" ry="8" style="stroke:#181818;stroke-width:0.5;"/><path d="M64.4497,21.5 L64.4497,48.5 M51.4497,29.5 L77.4497,29.5 M64.4497,48.5 L51.4497,63.5 M64.4497,48.5 L77.4497,63.5" fill="none" style="stroke:#181818;stroke-width:0.5;"/></g><g class="participant participant-tail" data-participant="Beneficiario"><text fill="#000000" font-family="sans-serif" font-size="14" lengthAdjust="spacing" textLength="82.8994" x="20" y="436.2295">Beneficiario</text><ellipse cx="64.4497" cy="448.0313" fill="#E2E2F0" rx="8" ry="8" style="stroke:#181818;stroke-width:0.5;"/><path d="M64.4497,456.0313 L64.4497,483.0313 M51.4497,464.0313 L77.4497,464.0313 M64.4497,483.0313 L51.4497,498.0313 M64.4497,483.0313 L77.4497,498.0313" fill="none" style="stroke:#181818;stroke-width:0.5;"/></g><g class="participant participant-head" data-participant="PSPB"><rect fill="#E2E2F0" height="30.2969" rx="2.5" ry="2.5" style="stroke:#181818;stroke-width:0.5;" width="127.1211" x="118.8994" y="50"/><text fill="#000000" font-family="sans-serif" font-size="14" lengthAdjust="spacing" textLength="113.1211" x="125.8994" y="69.9951">PSP Beneficiario</text></g><g class="participant participant-tail" data-participant="PSPB"><rect fill="#E2E2F0" height="30.2969" rx="2.5" ry="2.5" style="stroke:#181818;stroke-width:0.5;" width="127.1211" x="118.8994" y="423.2344"/><text fill="#000000" font-family="sans-serif" font-size="14" lengthAdjust="spacing" textLength="113.1211" x="125.8994" y="443.2295">PSP Beneficiario</text></g><g class="participant participant-head" data-participant="PSPP"><rect fill="#E2E2F0" height="30.2969" rx="2.5" ry="2.5" style="stroke:#181818;stroke-width:0.5;" width="101.917" x="262.377" y="50"/><text fill="#000000" font-family="sans-serif" font-size="14" lengthAdjust="spacing" textLength="87.917" x="269.377" y="69.9951">PSP Pagador</text></g><g class="participant participant-tail" data-participant="PSPP"><rect fill="#E2E2F0" height="30.2969" rx="2.5" ry="2.5" style="stroke:#181818;stroke-width:0.5;" width="101.917" x="262.377" y="423.2344"/><text fill="#000000" font-family="sans-serif" font-size="14" lengthAdjust="spacing" textLength="87.917" x="269.377" y="443.2295">PSP Pagador</text></g><g class="participant participant-head" data-participant="Sistema"><rect fill="#E2E2F0" height="30.2969" rx="2.5" ry="2.5" style="stroke:#181818;stroke-width:0.5;" width="70.3896" x="476.7329" y="50"/><text fill="#000000" font-family="sans-serif" font-size="14" lengthAdjust="spacing" textLength="56.3896" x="483.7329" y="69.9951">Sistema</text></g><g class="participant participant-tail" data-participant="Sistema"><rect fill="#E2E2F0" height="30.2969" rx="2.5" ry="2.5" style="stroke:#181818;stroke-width:0.5;" width="70.3896" x="476.7329" y="423.2344"/><text fill="#000000" font-family="sans-serif" font-size="14" lengthAdjust="spacing" textLength="56.3896" x="483.7329" y="443.2295">Sistema</text></g><g class="message" data-participant-1="Beneficiario" data-participant-2="Sistema"><polygon fill="#181818" points="499.9277,108.4297,509.9277,112.4297,499.9277,116.4297,503.9277,112.4297" style="stroke:#181818;stroke-width:1;"/><line style="stroke:#181818;stroke-width:1;" x1="64.4497" x2="505.9277" y1="112.4297" y2="112.4297"/><text fill="#000000" font-family="sans-serif" font-size="13" lengthAdjust="spacing" textLength="240.7539" x="71.4497" y="107.3638">POST /rtp {IBAN, importe, concepto}</text></g><g class="message" data-participant-1="Sistema" data-participant-2="PSPB"><polygon fill="#181818" points="193.46,137.5625,183.46,141.5625,193.46,145.5625,189.46,141.5625" style="stroke:#181818;stroke-width:1;"/><line style="stroke:#181818;stroke-width:1;" x1="187.46" x2="510.9277" y1="141.5625" y2="141.5625"/><text fill="#000000" font-family="sans-serif" font-size="13" lengthAdjust="spacing" textLength="104.0762" x="199.46" y="136.4966">Validar solicitud</text></g><path d="M10,156.5625 L74.4429,156.5625 L74.4429,163.6953 L64.4429,173.6953 L10,173.6953 L10,156.5625" fill="#EEEEEE" style="stroke:#000000;stroke-width:1.5;"/><rect fill="none" height="250.6719" style="stroke:#000000;stroke-width:1.5;" width="547.1226" x="10" y="156.5625"/><text fill="#000000" font-family="sans-serif" font-size="13" font-weight="bold" lengthAdjust="spacing" textLength="19.4429" x="25" y="169.6294">alt</text><text fill="#000000" font-family="sans-serif" font-size="11" font-weight="bold" lengthAdjust="spacing" textLength="105.5903" x="89.4429" y="168.7729">[Solicitud v&#225;lida]</text><g class="message" data-participant-1="PSPB" data-participant-2="PSPP"><polygon fill="#181818" points="301.3354,190.8281,311.3354,194.8281,301.3354,198.8281,305.3354,194.8281" style="stroke:#181818;stroke-width:1;"/><line style="stroke:#181818;stroke-width:1;" x1="182.46" x2="307.3354" y1="194.8281" y2="194.8281"/><text fill="#000000" font-family="sans-serif" font-size="13" lengthAdjust="spacing" textLength="106.8755" x="189.46" y="189.7622">Enrutar solicitud</text></g><g class="message" data-participant-1="PSPP" data-participant-2="Sistema"><polygon fill="#181818" points="499.9277,219.9609,509.9277,223.9609,499.9277,227.9609,503.9277,223.9609" style="stroke:#181818;stroke-width:1;"/><line style="stroke:#181818;stroke-width:1;" x1="313.3354" x2="505.9277" y1="223.9609" y2="223.9609"/><text fill="#000000" font-family="sans-serif" font-size="13" lengthAdjust="spacing" textLength="174.5923" x="320.3354" y="218.895">Confirmaci&#243;n de recepci&#243;n</text></g><g class="message" data-participant-1="Sistema" data-participant-2="Beneficiario"><polygon fill="#181818" points="75.4497,249.0938,65.4497,253.0938,75.4497,257.0938,71.4497,253.0938" style="stroke:#181818;stroke-width:1;"/><line style="stroke:#181818;stroke-width:1;" x1="69.4497" x2="510.9277" y1="253.0938" y2="253.0938"/><text fill="#000000" font-family="sans-serif" font-size="13" lengthAdjust="spacing" textLength="137.5664" x="81.4497" y="248.0278">RTP creado con &#233;xito</text></g><line style="stroke:#000000;stroke-width:1;stroke-dasharray:2.0,2.0;" x1="10" x2="557.1226" y1="262.0938" y2="262.0938"/><text fill="#000000" font-family="sans-serif" font-size="11" font-weight="bold" lengthAdjust="spacing" textLength="93.2476" x="15" y="272.3042">[IBAN inv&#225;lido]</text><g class="message" data-participant-1="PSPB" data-participant-2="Sistema"><polygon fill="#181818" points="499.9277,293.0313,509.9277,297.0313,499.9277,301.0313,503.9277,297.0313" style="stroke:#181818;stroke-width:1;"/><line style="stroke:#181818;stroke-width:1;" x1="182.46" x2="505.9277" y1="297.0313" y2="297.0313"/><text fill="#000000" font-family="sans-serif" font-size="13" lengthAdjust="spacing" textLength="122.77" x="189.46" y="291.9653">Error de validaci&#243;n</text></g><g class="message" data-participant-1="Sistema" data-participant-2="Beneficiario"><polygon fill="#181818" points="75.4497,322.1641,65.4497,326.1641,75.4497,330.1641,71.4497,326.1641" style="stroke:#181818;stroke-width:1;"/><line style="stroke:#181818;stroke-width:1;" x1="69.4497" x2="510.9277" y1="326.1641" y2="326.1641"/><text fill="#000000" font-family="sans-serif" font-size="13" lengthAdjust="spacing" textLength="258.6099" x="81.4497" y="321.0981">RTP no creado con &#233;xito (IBAN inv&#225;lido)</text></g><line style="stroke:#000000;stroke-width:1;stroke-dasharray:2.0,2.0;" x1="10" x2="557.1226" y1="335.1641" y2="335.1641"/><text fill="#000000" font-family="sans-serif" font-size="11" font-weight="bold" lengthAdjust="spacing" textLength="176.9453" x="15" y="345.3745">[PSP Pagador no disponible]</text><g class="message" data-participant-1="PSPB" data-participant-2="Sistema"><polygon fill="#181818" points="499.9277,366.1016,509.9277,370.1016,499.9277,374.1016,503.9277,370.1016" style="stroke:#181818;stroke-width:1;"/><line style="stroke:#181818;stroke-width:1;" x1="182.46" x2="505.9277" y1="370.1016" y2="370.1016"/><text fill="#000000" font-family="sans-serif" font-size="13" lengthAdjust="spacing" textLength="145.1646" x="189.46" y="365.0356">Error de enrutamiento</text></g><g class="message" data-participant-1="Sistema" data-participant-2="Beneficiario"><polygon fill="#181818" points="75.4497,395.2344,65.4497,399.2344,75.4497,403.2344,71.4497,399.2344" style="stroke:#181818;stroke-width:1;"/><line style="stroke:#181818;stroke-width:1;" x1="69.4497" x2="510.9277" y1="399.2344" y2="399.2344"/><text fill="#000000" font-family="sans-serif" font-size="13" lengthAdjust="spacing" textLength="324.3906" x="81.4497" y="394.1685">RTP no creado con &#233;xito (Pagador no encontrado)</text></g><!--SRC=[dP71IiGm48RlUOfXJmehtdiGhEp1onhiudrCPsMWpOHfTX74X_7esKVeYvbqMsbHKCmfoVp__DyawA8ebEHfpuvHMKn0ZMaVq4TOsSekgYl03j9b-LrcyGbhqKbX5ugAkqWj6ZDl1XTNKw40UrVju59ZW9VRydgx1cw3QAGrEF6EGfHNCugpBpCKy80DrwZGIPDwnaDji4bXqmcE_LiM64WhEqQdBM3ZzH0Npb5Z5rGtulUiBJhkFppK14g9PJWDXXdHVB82xdSMd59waSmF_VipHm53JKUGvmFs9pXPm7q5RrJJnwJ0up3Y7nEz_11wjimxFq7ClYpRQkw2U7viw1SU6XwkPV9H_WiqooMV2b5nuFBr9m00]--></g></svg>