<svg xmlns="http://www.w3.org/2000/svg" xmlns:xlink="http://www.w3.org/1999/xlink" contentStyleType="text/css" data-diagram-type="SEQUENCE" height="461px" preserveAspectRatio="none" style="width:806px;height:461px;background:#FFFFFF;" version="1.1" viewBox="0 0 806 461" width="806px" zoomAndPan="magnify"><defs/><g><rect fill="none" height="206.7344" style="stroke:#000000;stroke-width:1.5;" width="597.271" x="149.8652" y="156.5625"/><g><title>Pagador</title><rect fill="#000000" fill-opacity="0.00000" height="299" width="8" x="32.8477" y="81.2969"/><line style="stroke:#181818;stroke-width:0.5;stroke-dasharray:5.0,5.0;" x1="36" x2="36" y1="81.2969" y2="380.2969"/></g><g><title>PSP Pagador</title><rect fill="#000000" fill-opacity="0.00000" height="299" width="8" x="206.8237" y="81.2969"/><line style="stroke:#181818;stroke-width:0.5;stroke-dasharray:5.0,5.0;" x1="209.8652" x2="209.8652" y1="81.2969" y2="380.2969"/></g><g><title>Sistema</title><rect fill="#000000" fill-opacity="0.00000" height="299" width="8" x="411.1797" y="81.2969"/><line style="stroke:#181818;stroke-width:0.5;stroke-dasharray:5.0,5.0;" x1="414.9849" x2="414.9849" y1="81.2969" y2="380.2969"/></g><g><title>PSP Beneficiario</title><rect fill="#000000" fill-opacity="0.00000" height="299" width="8" x="547.9331" y="81.2969"/><line style="stroke:#181818;stroke-width:0.5;stroke-dasharray:5.0,5.0;" x1="551.3726" x2="551.3726" y1="81.2969" y2="380.2969"/></g><g><title>Beneficiario</title><rect fill="#000000" fill-opacity="0.00000" height="299" width="8" x="684.6865" y="81.2969"/><line style="stroke:#181818;stroke-width:0.5;stroke-dasharray:5.0,5.0;" x1="688.2368" x2="688.2368" y1="81.2969" y2="380.2969"/></g><g><title>Payer</title><rect fill="#000000" fill-opacity="0.00000" height="299" width="8" x="769.9741" y="81.2969"/><line style="stroke:#181818;stroke-width:0.5;stroke-dasharray:5.0,5.0;" x1="773.1362" x2="773.1362" y1="81.2969" y2="380.2969"/></g><g class="participant participant-head" data-participant="Pagador"><text fill="#000000" font-family="sans-serif" font-size="14" lengthAdjust="spacing" textLength="57.6953" x="5" y="77.9951">Pagador</text><ellipse cx="36.8477" cy="13.5" fill="#E2E2F0" rx="8" ry="8" style="stroke:#181818;stroke-width:0.5;"/><path d="M36.8477,21.5 L36.8477,48.5 M23.8477,29.5 L49.8477,29.5 M36.8477,48.5 L23.8477,63.5 M36.8477,48.5 L49.8477,63.5" fill="none" style="stroke:#181818;stroke-width:0.5;"/></g><g class="participant participant-tail" data-participant="Pagador"><text fill="#000000" font-family="sans-serif" font-size="14" lengthAdjust="spacing" textLength="57.6953" x="5" y="392.292">Pagador</text><ellipse cx="36.8477" cy="404.0938" fill="#E2E2F0" rx="8" ry="8" style="stroke:#181818;stroke-width:0.5;"/><path d="M36.8477,412.0938 L36.8477,439.0938 M23.8477,420.0938 L49.8477,420.0938 M36.8477,439.0938 L23.8477,454.0938 M36.8477,439.0938 L49.8477,454.0938" fill="none" style="stroke:#181818;stroke-width:0.5;"/></g><g class="participant participant-head" data-participant="PSPP"><rect fill="#E2E2F0" height="30.2969" rx="2.5" ry="2.5" style="stroke:#181818;stroke-width:0.5;" width="101.917" x="159.8652" y="50"/><text fill="#000000" font-family="sans-serif" font-size="14" lengthAdjust="spacing" textLength="87.917" x="166.8652" y="69.9951">PSP Pagador</text></g><g class="participant participant-tail" data-participant="PSPP"><rect fill="#E2E2F0" height="30.2969" rx="2.5" ry="2.5" style="stroke:#181818;stroke-width:0.5;" width="101.917" x="159.8652" y="379.2969"/><text fill="#000000" font-family="sans-serif" font-size="14" lengthAdjust="spacing" textLength="87.917" x="166.8652" y="399.292">PSP Pagador</text></g><g class="participant participant-head" data-participant="Sistema"><rect fill="#E2E2F0" height="30.2969" rx="2.5" ry="2.5" style="stroke:#181818;stroke-width:0.5;" width="70.3896" x="379.9849" y="50"/><text fill="#000000" font-family="sans-serif" font-size="14" lengthAdjust="spacing" textLength="56.3896" x="386.9849" y="69.9951">Sistema</text></g><g class="participant participant-tail" data-participant="Sistema"><rect fill="#E2E2F0" height="30.2969" rx="2.5" ry="2.5" style="stroke:#181818;stroke-width:0.5;" width="70.3896" x="379.9849" y="379.2969"/><text fill="#000000" font-family="sans-serif" font-size="14" lengthAdjust="spacing" textLength="56.3896" x="386.9849" y="399.292">Sistema</text></g><g class="participant participant-head" data-participant="PSPB"><rect fill="#E2E2F0" height="30.2969" rx="2.5" ry="2.5" style="stroke:#181818;stroke-width:0.5;" width="127.1211" x="488.3726" y="50"/><text fill="#000000" font-family="sans-serif" font-size="14" lengthAdjust="spacing" textLength="113.1211" x="495.3726" y="69.9951">PSP Beneficiario</text></g><g class="participant participant-tail" data-participant="PSPB"><rect fill="#E2E2F0" height="30.2969" rx="2.5" ry="2.5" style="stroke:#181818;stroke-width:0.5;" width="127.1211" x="488.3726" y="379.2969"/><text fill="#000000" font-family="sans-serif" font-size="14" lengthAdjust="spacing" textLength="113.1211" x="495.3726" y="399.292">PSP Beneficiario</text></g><g class="participant participant-head" data-participant="Beneficiario"><rect fill="#E2E2F0" height="30.2969" rx="2.5" ry="2.5" style="stroke:#181818;stroke-width:0.5;" width="96.8994" x="640.2368" y="50"/><text fill="#000000" font-family="sans-serif" font-size="14" lengthAdjust="spacing" textLength="82.8994" x="647.2368" y="69.9951">Beneficiario</text></g><g class="participant participant-tail" data-participant="Beneficiario"><rect fill="#E2E2F0" height="30.2969" rx="2.5" ry="2.5" style="stroke:#181818;stroke-width:0.5;" width="96.8994" x="640.2368" y="379.2969"/><text fill="#000000" font-family="sans-serif" font-size="14" lengthAdjust="spacing" textLength="82.8994" x="647.2368" y="399.292">Beneficiario</text></g><g class="participant participant-head" data-participant="Payer"><rect fill="#E2E2F0" height="30.2969" rx="2.5" ry="2.5" style="stroke:#181818;stroke-width:0.5;" width="53.6758" x="747.1362" y="50"/><text fill="#000000" font-family="sans-serif" font-size="14" lengthAdjust="spacing" textLength="39.6758" x="754.1362" y="69.9951">Payer</text></g><g class="participant participant-tail" data-participant="Payer"><rect fill="#E2E2F0" height="30.2969" rx="2.5" ry="2.5" style="stroke:#181818;stroke-width:0.5;" width="53.6758" x="747.1362" y="379.2969"/><text fill="#000000" font-family="sans-serif" font-size="14" lengthAdjust="spacing" textLength="39.6758" x="754.1362" y="399.292">Payer</text></g><g class="message" data-participant-1="PSPP" data-participant-2="Pagador"><polygon fill="#181818" points="47.8477,108.4297,37.8477,112.4297,47.8477,116.4297,43.8477,112.4297" style="stroke:#181818;stroke-width:1;"/><line style="stroke:#181818;stroke-width:1;" x1="41.8477" x2="209.8237" y1="112.4297" y2="112.4297"/><text fill="#000000" font-family="sans-serif" font-size="13" lengthAdjust="spacing" textLength="149.9761" x="53.8477" y="107.3638">Presentar solicitud RTP</text></g><g class="message" data-participant-1="Payer" data-participant-2="PSPP"><polygon fill="#181818" points="221.8237,137.5625,211.8237,141.5625,221.8237,145.5625,217.8237,141.5625" style="stroke:#181818;stroke-width:1;"/><line style="stroke:#181818;stroke-width:1;" x1="215.8237" x2="772.9741" y1="141.5625" y2="141.5625"/><text fill="#000000" font-family="sans-serif" font-size="13" lengthAdjust="spacing" textLength="187.751" x="227.8237" y="136.4966">Decisi&#243;n (acceptar/rechazar)</text></g><path d="M149.8652,156.5625 L214.3081,156.5625 L214.3081,163.6953 L204.3081,173.6953 L149.8652,173.6953 L149.8652,156.5625" fill="#EEEEEE" style="stroke:#000000;stroke-width:1.5;"/><rect fill="none" height="206.7344" style="stroke:#000000;stroke-width:1.5;" width="597.271" x="149.8652" y="156.5625"/><text fill="#000000" font-family="sans-serif" font-size="13" font-weight="bold" lengthAdjust="spacing" textLength="19.4429" x="164.8652" y="169.6294">alt</text><text fill="#000000" font-family="sans-serif" font-size="11" font-weight="bold" lengthAdjust="spacing" textLength="123.7285" x="229.3081" y="168.7729">[Decisi&#243;n aceptada]</text><g class="message" data-participant-1="PSPP" data-participant-2="Sistema"><polygon fill="#181818" points="403.1797,190.8281,413.1797,194.8281,403.1797,198.8281,407.1797,194.8281" style="stroke:#181818;stroke-width:1;"/><line style="stroke:#181818;stroke-width:1;" x1="210.8237" x2="409.1797" y1="194.8281" y2="194.8281"/><text fill="#000000" font-family="sans-serif" font-size="13" lengthAdjust="spacing" textLength="117.1396" x="217.8237" y="189.7622">Registrar decisi&#243;n</text></g><g class="message" data-participant-1="Sistema" data-participant-2="PSPB"><polygon fill="#181818" points="539.9331,219.9609,549.9331,223.9609,539.9331,227.9609,543.9331,223.9609" style="stroke:#181818;stroke-width:1;"/><line style="stroke:#181818;stroke-width:1;" x1="415.1797" x2="545.9331" y1="223.9609" y2="223.9609"/><text fill="#000000" font-family="sans-serif" font-size="13" lengthAdjust="spacing" textLength="112.7534" x="422.1797" y="218.895">Notificar decisi&#243;n</text></g><g class="message" data-participant-1="PSPB" data-participant-2="Beneficiario"><polygon fill="#181818" points="676.6865,249.0938,686.6865,253.0938,676.6865,257.0938,680.6865,253.0938" style="stroke:#181818;stroke-width:1;"/><line style="stroke:#181818;stroke-width:1;" x1="551.9331" x2="682.6865" y1="253.0938" y2="253.0938"/><text fill="#000000" font-family="sans-serif" font-size="13" lengthAdjust="spacing" textLength="112.7534" x="558.9331" y="248.0278">Notificar decisi&#243;n</text></g><line style="stroke:#000000;stroke-width:1;stroke-dasharray:2.0,2.0;" x1="149.8652" x2="747.1362" y1="262.0938" y2="262.0938"/><text fill="#000000" font-family="sans-serif" font-size="11" font-weight="bold" lengthAdjust="spacing" textLength="115.124" x="154.8652" y="272.3042">[Tiempo excedido]</text><g class="message" data-participant-1="PSPP" data-participant-2="Sistema"><polygon fill="#181818" points="403.1797,293.0313,413.1797,297.0313,403.1797,301.0313,407.1797,297.0313" style="stroke:#181818;stroke-width:1;"/><line style="stroke:#181818;stroke-width:1;" x1="210.8237" x2="409.1797" y1="297.0313" y2="297.0313"/><text fill="#000000" font-family="sans-serif" font-size="13" lengthAdjust="spacing" textLength="180.356" x="217.8237" y="291.9653">Rechazar autom&#225;ticamente</text></g><g class="message" data-participant-1="Sistema" data-participant-2="PSPB"><polygon fill="#181818" points="539.9331,322.1641,549.9331,326.1641,539.9331,330.1641,543.9331,326.1641" style="stroke:#181818;stroke-width:1;"/><line style="stroke:#181818;stroke-width:1;" x1="415.1797" x2="545.9331" y1="326.1641" y2="326.1641"/><text fill="#000000" font-family="sans-serif" font-size="13" lengthAdjust="spacing" textLength="110.6396" x="422.1797" y="321.0981">Notificar rechazo</text></g><g class="message" data-participant-1="PSPB" data-participant-2="Beneficiario"><polygon fill="#181818" points="676.6865,351.2969,686.6865,355.2969,676.6865,359.2969,680.6865,355.2969" style="stroke:#181818;stroke-width:1;"/><line style="stroke:#181818;stroke-width:1;" x1="551.9331" x2="682.6865" y1="355.2969" y2="355.2969"/><text fill="#000000" font-family="sans-serif" font-size="13" lengthAdjust="spacing" textLength="110.6396" x="558.9331" y="350.231">Notificar rechazo</text></g><!--SRC=[ZP0nRiCm34LtdOB8r0v5TmyTZCo5aEG2XCGc16p9e1WWoMrwXXuX5oljM823j6WrIUBx_9_4e5d0unvZ5ZUWA0SUC2ci_DRNmWgmWBtz7R7bejJZewgbH1_sWyAvIjixR4auDtQ6bxVgre0NAfGK1Khk3DDZXCtEEuzdaeaqHGDh2bpu-fNW2KEWmGIlGk605vHdXvqk29pg4HtOgORp10riQ6zNCSDO5HCu0xDbsy1xLhRW3-1O7QdbO3_Jr1M27LC_PA1JeCWn_nRgDWhWKND__RJjOMzheR-YtNQG_nMiifJYDm00]--></g></svg>