<svg xmlns="http://www.w3.org/2000/svg" xmlns:xlink="http://www.w3.org/1999/xlink" contentStyleType="text/css" data-diagram-type="CLASS" height="208px" preserveAspectRatio="none" style="width:843px;height:208px;background:#FFFFFF;" version="1.1" viewBox="0 0 843 208" width="843px" zoomAndPan="magnify"><defs/><g><!--class Actor--><g class="entity" data-entity="Actor" data-source-line="4" data-uid="ent0002" id="entity_Actor"><rect fill="#F1F1F1" height="194.6719" rx="2.5" ry="2.5" style="stroke:#181818;stroke-width:0.5;" width="173.3965" x="7" y="7"/><ellipse cx="70.9058" cy="23" fill="#ADD1B2" rx="11" ry="11" style="stroke:#181818;stroke-width:1;"/><path d="M75.0151,29 L67.2964,29 L67.2964,16.6094 L75.0151,16.6094 L75.0151,18.7656 L69.7495,18.7656 L69.7495,21.4375 L74.5151,21.4375 L74.5151,23.5938 L69.7495,23.5938 L69.7495,26.8438 L75.0151,26.8438 L75.0151,29 Z " fill="#000000"/><text fill="#000000" font-family="sans-serif" font-size="14" lengthAdjust="spacing" textLength="37.085" x="91.4058" y="27.8467">Actor</text><line style="stroke:#181818;stroke-width:0.5;" x1="8" x2="179.3965" y1="39" y2="39"/><ellipse cx="18" cy="52.6484" fill="#000000" rx="3" ry="3" style="stroke:#000000;stroke-width:1;"/><text fill="#000000" font-family="sans-serif" font-size="14" lengthAdjust="spacing" textLength="115.7188" x="27" y="55.9951">id : integer &#171;PK&#187;</text><ellipse cx="18" cy="68.9453" fill="#000000" rx="3" ry="3" style="stroke:#000000;stroke-width:1;"/><text fill="#000000" font-family="sans-serif" font-size="14" lengthAdjust="spacing" textLength="124.0449" x="27" y="72.292">username : string</text><ellipse cx="18" cy="85.2422" fill="#000000" rx="3" ry="3" style="stroke:#000000;stroke-width:1;"/><text fill="#000000" font-family="sans-serif" font-size="14" lengthAdjust="spacing" textLength="120.5176" x="27" y="88.5889">password : string</text><ellipse cx="18" cy="101.5391" fill="#000000" rx="3" ry="3" style="stroke:#000000;stroke-width:1;"/><text fill="#000000" font-family="sans-serif" font-size="14" lengthAdjust="spacing" textLength="93.5088" x="27" y="104.8857">name : string</text><ellipse cx="18" cy="117.8359" fill="#000000" rx="3" ry="3" style="stroke:#000000;stroke-width:1;"/><text fill="#000000" font-family="sans-serif" font-size="14" lengthAdjust="spacing" textLength="80.6299" x="27" y="121.1826">role : string</text><ellipse cx="18" cy="134.1328" fill="#000000" rx="3" ry="3" style="stroke:#000000;stroke-width:1;"/><text fill="#000000" font-family="sans-serif" font-size="14" lengthAdjust="spacing" textLength="119.7041" x="27" y="137.4795">photo_url : string</text><ellipse cx="18" cy="150.4297" fill="#000000" rx="3" ry="3" style="stroke:#000000;stroke-width:1;"/><text fill="#000000" font-family="sans-serif" font-size="14" lengthAdjust="spacing" textLength="84.0342" x="27" y="153.7764">iban : string</text><ellipse cx="18" cy="166.7266" fill="#000000" rx="3" ry="3" style="stroke:#000000;stroke-width:1;"/><text fill="#000000" font-family="sans-serif" font-size="14" lengthAdjust="spacing" textLength="100.1875" x="27" y="170.0732">balance : float</text><ellipse cx="18" cy="183.0234" fill="#000000" rx="3" ry="3" style="stroke:#000000;stroke-width:1;"/><text fill="#000000" font-family="sans-serif" font-size="14" lengthAdjust="spacing" textLength="147.3965" x="27" y="186.3701">psp_id : integer &#171;FK&#187;</text><line style="stroke:#181818;stroke-width:0.5;" x1="8" x2="179.3965" y1="193.6719" y2="193.6719"/></g><!--class RTP--><g class="entity" data-entity="RTP" data-source-line="16" data-uid="ent0003" id="entity_RTP"><rect fill="#F1F1F1" height="178.375" rx="2.5" ry="2.5" style="stroke:#181818;stroke-width:0.5;" width="226.3408" x="332.4" y="15.15"/><ellipse cx="427.9596" cy="31.15" fill="#ADD1B2" rx="11" ry="11" style="stroke:#181818;stroke-width:1;"/><path d="M432.0689,37.15 L424.3502,37.15 L424.3502,24.7594 L432.0689,24.7594 L432.0689,26.9156 L426.8033,26.9156 L426.8033,29.5875 L431.5689,29.5875 L431.5689,31.7437 L426.8033,31.7437 L426.8033,34.9937 L432.0689,34.9937 L432.0689,37.15 Z " fill="#000000"/><text fill="#000000" font-family="sans-serif" font-size="14" lengthAdjust="spacing" textLength="26.7217" x="448.4596" y="35.9967">RTP</text><line style="stroke:#181818;stroke-width:0.5;" x1="333.4" x2="557.7408" y1="47.15" y2="47.15"/><ellipse cx="343.4" cy="60.7984" fill="#000000" rx="3" ry="3" style="stroke:#000000;stroke-width:1;"/><text fill="#000000" font-family="sans-serif" font-size="14" lengthAdjust="spacing" textLength="115.7188" x="352.4" y="64.1451">id : integer &#171;PK&#187;</text><ellipse cx="343.4" cy="77.0953" fill="#000000" rx="3" ry="3" style="stroke:#000000;stroke-width:1;"/><text fill="#000000" font-family="sans-serif" font-size="14" lengthAdjust="spacing" textLength="84.0342" x="352.4" y="80.442">iban : string</text><ellipse cx="343.4" cy="93.3922" fill="#000000" rx="3" ry="3" style="stroke:#000000;stroke-width:1;"/><text fill="#000000" font-family="sans-serif" font-size="14" lengthAdjust="spacing" textLength="99.0869" x="352.4" y="96.7389">amount : float</text><ellipse cx="343.4" cy="109.6891" fill="#000000" rx="3" ry="3" style="stroke:#000000;stroke-width:1;"/><text fill="#000000" font-family="sans-serif" font-size="14" lengthAdjust="spacing" textLength="96.8242" x="352.4" y="113.0357">status : string</text><ellipse cx="343.4" cy="125.9859" fill="#000000" rx="3" ry="3" style="stroke:#000000;stroke-width:1;"/><text fill="#000000" font-family="sans-serif" font-size="14" lengthAdjust="spacing" textLength="152.332" x="352.4" y="129.3326">timestamp : datetime</text><ellipse cx="343.4" cy="142.2828" fill="#000000" rx="3" ry="3" style="stroke:#000000;stroke-width:1;"/><text fill="#000000" font-family="sans-serif" font-size="14" lengthAdjust="spacing" textLength="200.3408" x="352.4" y="145.6295">beneficiary_id : integer &#171;FK&#187;</text><ellipse cx="343.4" cy="158.5797" fill="#000000" rx="3" ry="3" style="stroke:#000000;stroke-width:1;"/><text fill="#000000" font-family="sans-serif" font-size="14" lengthAdjust="spacing" textLength="162.4492" x="352.4" y="161.9264">payer_id : integer &#171;FK&#187;</text><ellipse cx="343.4" cy="174.8766" fill="#000000" rx="3" ry="3" style="stroke:#000000;stroke-width:1;"/><text fill="#000000" font-family="sans-serif" font-size="14" lengthAdjust="spacing" textLength="109.6279" x="352.4" y="178.2232">concept : string</text><line style="stroke:#181818;stroke-width:0.5;" x1="333.4" x2="557.7408" y1="185.525" y2="185.525"/></g><!--class Log--><g class="entity" data-entity="Log" data-source-line="27" data-uid="ent0004" id="entity_Log"><rect fill="#F1F1F1" height="129.4844" rx="2.5" ry="2.5" style="stroke:#181818;stroke-width:0.5;" width="178.332" x="657.74" y="39.59"/><ellipse cx="730.03" cy="55.59" fill="#ADD1B2" rx="11" ry="11" style="stroke:#181818;stroke-width:1;"/><path d="M734.1394,61.59 L726.4207,61.59 L726.4207,49.1994 L734.1394,49.1994 L734.1394,51.3556 L728.8738,51.3556 L728.8738,54.0275 L733.6394,54.0275 L733.6394,56.1837 L728.8738,56.1837 L728.8738,59.4337 L734.1394,59.4337 L734.1394,61.59 Z " fill="#000000"/><text fill="#000000" font-family="sans-serif" font-size="14" lengthAdjust="spacing" textLength="25.252" x="750.53" y="60.4367">Log</text><line style="stroke:#181818;stroke-width:0.5;" x1="658.74" x2="835.072" y1="71.59" y2="71.59"/><ellipse cx="668.74" cy="85.2384" fill="#000000" rx="3" ry="3" style="stroke:#000000;stroke-width:1;"/><text fill="#000000" font-family="sans-serif" font-size="14" lengthAdjust="spacing" textLength="115.7188" x="677.74" y="88.5851">id : integer &#171;PK&#187;</text><ellipse cx="668.74" cy="101.5353" fill="#000000" rx="3" ry="3" style="stroke:#000000;stroke-width:1;"/><text fill="#000000" font-family="sans-serif" font-size="14" lengthAdjust="spacing" textLength="142.4609" x="677.74" y="104.882">rtp_id : integer &#171;FK&#187;</text><ellipse cx="668.74" cy="117.8322" fill="#000000" rx="3" ry="3" style="stroke:#000000;stroke-width:1;"/><text fill="#000000" font-family="sans-serif" font-size="14" lengthAdjust="spacing" textLength="125.166" x="677.74" y="121.1789">old_status : string</text><ellipse cx="668.74" cy="134.1291" fill="#000000" rx="3" ry="3" style="stroke:#000000;stroke-width:1;"/><text fill="#000000" font-family="sans-serif" font-size="14" lengthAdjust="spacing" textLength="132.7607" x="677.74" y="137.4757">new_status : string</text><ellipse cx="668.74" cy="150.4259" fill="#000000" rx="3" ry="3" style="stroke:#000000;stroke-width:1;"/><text fill="#000000" font-family="sans-serif" font-size="14" lengthAdjust="spacing" textLength="152.332" x="677.74" y="153.7726">timestamp : datetime</text><line style="stroke:#181818;stroke-width:0.5;" x1="658.74" x2="835.072" y1="161.0744" y2="161.0744"/></g><!--link Actor to RTP--><g class="link" data-entity-1="Actor" data-entity-2="RTP" data-source-line="35" data-uid="lnk5" id="link_Actor_RTP"><path codeLine="35" d="M188.73,104.33 C234.36,104.33 264.97,104.33 314.05,104.33" fill="none" id="Actor-RTP" style="stroke:#181818;stroke-width:1;"/><line style="stroke:#181818;stroke-width:1;" x1="184.73" x2="184.73" y1="108.33" y2="100.33"/><line style="stroke:#181818;stroke-width:1;" x1="187.73" x2="187.73" y1="108.33" y2="100.33"/><line style="stroke:#181818;stroke-width:1;" x1="188.73" x2="180.73" y1="104.33" y2="104.33"/><line style="stroke:#181818;stroke-width:1;" x1="324.05" x2="332.05" y1="104.33" y2="98.33"/><line style="stroke:#181818;stroke-width:1;" x1="324.05" x2="332.05" y1="104.33" y2="110.33"/><line style="stroke:#181818;stroke-width:1;" x1="324.05" x2="332.05" y1="104.33" y2="104.33"/><ellipse cx="318.05" cy="104.33" fill="none" rx="4" ry="4" style="stroke:#181818;stroke-width:1;"/><text fill="#000000" font-family="sans-serif" font-size="13" lengthAdjust="spacing" textLength="90.8032" x="211.4" y="100.3969">beneficiary_id</text></g><!--link Actor to RTP--><g class="link" data-entity-1="Actor" data-entity-2="RTP" data-source-line="36" data-uid="lnk6" id="link_Actor_RTP"><path codeLine="36" d="M188.4873,126.4057 C198.4773,128.1757 200.69,128.3 210.4,129.33 C251.05,133.68 261.66,132.89 302.4,129.33 C312.13,128.48 304.364,129.7341 314.444,128.3641" fill="none" id="Actor-RTP-1" style="stroke:#181818;stroke-width:1;"/><line style="stroke:#181818;stroke-width:1;" x1="183.8508" x2="185.2465" y1="129.6465" y2="121.7692"/><line style="stroke:#181818;stroke-width:1;" x1="186.8048" x2="188.2005" y1="130.1699" y2="122.2926"/><line style="stroke:#181818;stroke-width:1;" x1="188.4873" x2="180.61" y1="126.4057" y2="125.01"/><line style="stroke:#181818;stroke-width:1;" x1="324.3529" x2="331.472" y1="127.0174" y2="119.9947"/><line style="stroke:#181818;stroke-width:1;" x1="324.3529" x2="333.088" y1="127.0174" y2="131.8853"/><line style="stroke:#181818;stroke-width:1;" x1="324.3529" x2="332.28" y1="127.0174" y2="125.94"/><ellipse cx="318.4075" cy="127.8254" fill="none" rx="4" ry="4" style="stroke:#181818;stroke-width:1;"/><text fill="#000000" font-family="sans-serif" font-size="13" lengthAdjust="spacing" textLength="55.6182" x="228.9" y="125.3969">payer_id</text></g><!--link RTP to Log--><g class="link" data-entity-1="RTP" data-entity-2="Log" data-source-line="37" data-uid="lnk7" id="link_RTP_Log"><path codeLine="37" d="M566.88,104.33 C599.4,104.33 608.42,104.33 639.28,104.33" fill="none" id="RTP-Log" style="stroke:#181818;stroke-width:1;"/><line style="stroke:#181818;stroke-width:1;" x1="562.88" x2="562.88" y1="108.33" y2="100.33"/><line style="stroke:#181818;stroke-width:1;" x1="565.88" x2="565.88" y1="108.33" y2="100.33"/><line style="stroke:#181818;stroke-width:1;" x1="566.88" x2="558.88" y1="104.33" y2="104.33"/><line style="stroke:#181818;stroke-width:1;" x1="649.28" x2="657.28" y1="104.33" y2="98.33"/><line style="stroke:#181818;stroke-width:1;" x1="649.28" x2="657.28" y1="104.33" y2="110.33"/><line style="stroke:#181818;stroke-width:1;" x1="649.28" x2="657.28" y1="104.33" y2="104.33"/><ellipse cx="643.28" cy="104.33" fill="none" rx="4" ry="4" style="stroke:#181818;stroke-width:1;"/><text fill="#000000" font-family="sans-serif" font-size="13" lengthAdjust="spacing" textLength="37.0576" x="589.74" y="100.3969">rtp_id</text></g><!--SRC=[ZPB1QiCm38RlUGgT1ts1K0gxxB8TojWzkBQI2Xmho0ebj7ltsKctaZIbE-hNB-l_X3tM2ieWr1mL70bQ9Gv5KM1GqW5UhRB0kG1u0N9G0WN51WMss_txRZVgVKG9fiNKZIeKcb7jJ8md5ZTNxtt2VZbvPEMg5p-NwM32N3aORuBDqxLdezDmxAf5qBSSzFiFwVDh_mJeVfDfkGywMnJLQ1_dDgKMazvsINP6CTTJKWnOaoKZmsgwwM03oiEkvKJQwMtV3UY3coT0ejt3XzcxQeqbuAdwDsCAC_sKosMpuVDuut91lURuPIvoUUradF8Q-GS0]--></g></svg>