<svg xmlns="http://www.w3.org/2000/svg" xmlns:xlink="http://www.w3.org/1999/xlink" contentStyleType="text/css" data-diagram-type="DESCRIPTION" height="464px" preserveAspectRatio="none" style="width:774px;height:464px;background:#FFFFFF;" version="1.1" viewBox="0 0 774 464" width="774px" zoomAndPan="magnify"><defs/><g><!--cluster Prototipo SRTP--><g class="cluster" data-entity="Prototipo SRTP" data-source-line="1" data-uid="ent0002" id="cluster_Prototipo SRTP"><path d="M25.73,6 L146.5025,6 A3.75,3.75 0 0 1 149.0025,8.5 L156.0025,28.2969 L469.73,28.2969 A2.5,2.5 0 0 1 472.23,30.7969 L472.23,454.69 A2.5,2.5 0 0 1 469.73,457.19 L25.73,457.19 A2.5,2.5 0 0 1 23.23,454.69 L23.23,8.5 A2.5,2.5 0 0 1 25.73,6" fill="none" style="stroke:#000000;stroke-width:1.5;"/><line style="stroke:#000000;stroke-width:1.5;" x1="23.23" x2="156.0025" y1="28.2969" y2="28.2969"/><text fill="#000000" font-family="sans-serif" font-size="14" font-weight="bold" lengthAdjust="spacing" textLength="119.7725" x="27.23" y="20.9951">Prototipo SRTP</text></g><!--entity Gateway REST--><g class="entity" data-entity="Gateway REST" data-source-line="2" data-uid="ent0003" id="entity_Gateway REST"><rect fill="#F1F1F1" height="46.2969" rx="2.5" ry="2.5" style="stroke:#181818;stroke-width:0.5;" width="142.3066" x="70.08" y="41"/><rect fill="#F1F1F1" height="10" style="stroke:#181818;stroke-width:0.5;" width="15" x="192.3866" y="46"/><rect fill="#F1F1F1" height="2" style="stroke:#181818;stroke-width:0.5;" width="4" x="190.3866" y="48"/><rect fill="#F1F1F1" height="2" style="stroke:#181818;stroke-width:0.5;" width="4" x="190.3866" y="52"/><text fill="#000000" font-family="sans-serif" font-size="14" lengthAdjust="spacing" textLength="102.3066" x="85.08" y="73.9951">Gateway REST</text></g><!--entity Service RTP--><g class="entity" data-entity="Service RTP" data-source-line="2" data-uid="ent0004" id="entity_Service RTP"><rect fill="#F1F1F1" height="46.2969" rx="2.5" ry="2.5" style="stroke:#181818;stroke-width:0.5;" width="122.9131" x="110.77" y="148.3"/><rect fill="#F1F1F1" height="10" style="stroke:#181818;stroke-width:0.5;" width="15" x="213.6831" y="153.3"/><rect fill="#F1F1F1" height="2" style="stroke:#181818;stroke-width:0.5;" width="4" x="211.6831" y="155.3"/><rect fill="#F1F1F1" height="2" style="stroke:#181818;stroke-width:0.5;" width="4" x="211.6831" y="159.3"/><text fill="#000000" font-family="sans-serif" font-size="14" lengthAdjust="spacing" textLength="82.9131" x="125.77" y="181.2951">Service RTP</text></g><!--entity Base de Datos SQLite--><g class="entity" data-entity="Base de Datos SQLite" data-source-line="3" data-uid="ent0006" id="entity_Base de Datos SQLite"><rect fill="#F1F1F1" height="46.2969" rx="2.5" ry="2.5" style="stroke:#181818;stroke-width:0.5;" width="191.3477" x="76.56" y="271.6"/><rect fill="#F1F1F1" height="10" style="stroke:#181818;stroke-width:0.5;" width="15" x="247.9077" y="276.6"/><rect fill="#F1F1F1" height="2" style="stroke:#181818;stroke-width:0.5;" width="4" x="245.9077" y="278.6"/><rect fill="#F1F1F1" height="2" style="stroke:#181818;stroke-width:0.5;" width="4" x="245.9077" y="282.6"/><text fill="#000000" font-family="sans-serif" font-size="14" lengthAdjust="spacing" textLength="151.3477" x="91.56" y="304.5951">Base de Datos SQLite</text></g><!--entity Notification Hub--><g class="entity" data-entity="Notification Hub" data-source-line="4" data-uid="ent0008" id="entity_Notification Hub"><rect fill="#F1F1F1" height="46.2969" rx="2.5" ry="2.5" style="stroke:#181818;stroke-width:0.5;" width="153.0664" x="302.7" y="271.6"/><rect fill="#F1F1F1" height="10" style="stroke:#181818;stroke-width:0.5;" width="15" x="435.7664" y="276.6"/><rect fill="#F1F1F1" height="2" style="stroke:#181818;stroke-width:0.5;" width="4" x="433.7664" y="278.6"/><rect fill="#F1F1F1" height="2" style="stroke:#181818;stroke-width:0.5;" width="4" x="433.7664" y="282.6"/><text fill="#000000" font-family="sans-serif" font-size="14" lengthAdjust="spacing" textLength="113.0664" x="317.7" y="304.5951">Notification Hub</text></g><!--entity Actores--><g class="entity" data-entity="Actores" data-source-line="4" data-uid="ent0009" id="entity_Actores"><rect fill="#F1F1F1" height="46.2969" rx="2.5" ry="2.5" style="stroke:#181818;stroke-width:0.5;" width="92.9922" x="312.73" y="394.89"/><rect fill="#F1F1F1" height="10" style="stroke:#181818;stroke-width:0.5;" width="15" x="385.7222" y="399.89"/><rect fill="#F1F1F1" height="2" style="stroke:#181818;stroke-width:0.5;" width="4" x="383.7222" y="401.89"/><rect fill="#F1F1F1" height="2" style="stroke:#181818;stroke-width:0.5;" width="4" x="383.7222" y="405.89"/><text fill="#000000" font-family="sans-serif" font-size="14" lengthAdjust="spacing" textLength="52.9922" x="327.73" y="427.8851">Actores</text></g><g class="entity" data-entity="GMN14" data-source-line="12" data-uid="ent0015" id="entity_GMN14"><path d="M490.91,282.18 L490.91,307.3128 L767.5555,307.3128 L767.5555,292.18 L757.5555,282.18 L490.91,282.18" fill="#FEFFDD" style="stroke:#181818;stroke-width:0.5;"/><path d="M757.5555,282.18 L757.5555,292.18 L767.5555,292.18 L757.5555,282.18" fill="#FEFFDD" style="stroke:#181818;stroke-width:1;"/><text fill="#000000" font-family="sans-serif" font-size="13" lengthAdjust="spacing" textLength="255.6455" x="496.91" y="299.2469">Gestionada con SQLAlchemy y Alembic</text></g><g class="entity" data-entity="GMN17" data-source-line="16" data-uid="ent0018" id="entity_GMN17"><path d="M488.39,397.91 L488.39,414.04 L406.1,418.04 L488.39,422.04 L488.39,438.1756 A0,0 0 0 0 488.39,438.1756 L696.0619,438.1756 A0,0 0 0 0 696.0619,438.1756 L696.0619,407.91 L686.0619,397.91 L488.39,397.91 A0,0 0 0 0 488.39,397.91" fill="#FEFFDD" style="stroke:#181818;stroke-width:0.5;"/><path d="M686.0619,397.91 L686.0619,407.91 L696.0619,407.91 L686.0619,397.91" fill="#FEFFDD" style="stroke:#181818;stroke-width:0.5;"/><text fill="#000000" font-family="sans-serif" font-size="13" lengthAdjust="spacing" textLength="186.6719" x="494.39" y="414.9769">Beneficiary, PSP Beneficiary,</text><text fill="#000000" font-family="sans-serif" font-size="13" lengthAdjust="spacing" textLength="110.0112" x="494.39" y="430.1097">PSP Payer, Payer</text></g><!--link Gateway REST to Service RTP--><g class="link" data-entity-1="Gateway REST" data-entity-2="Service RTP" data-source-line="2" data-uid="lnk5" id="link_Gateway REST_Service RTP"><path d="M147.88,87.74 C153.11,105.51 158.6651,124.3844 163.8951,142.1444" fill="none" id="Gateway REST-to-Service RTP" style="stroke:#181818;stroke-width:1;"/><polygon fill="#181818" points="165.59,147.9,166.8847,138.1366,164.1776,143.1036,159.2105,140.3965,165.59,147.9" style="stroke:#181818;stroke-width:1;"/></g><!--link Service RTP to Base de Datos SQLite--><g class="link" data-entity-1="Service RTP" data-entity-2="Base de Datos SQLite" data-source-line="3" data-uid="lnk7" id="link_Service RTP_Base de Datos SQLite"><path d="M172.23,194.98 C172.23,216.77 172.23,243.59 172.23,265.33" fill="none" id="Service RTP-to-Base de Datos SQLite" style="stroke:#181818;stroke-width:1;"/><polygon fill="#181818" points="172.23,271.33,176.23,262.33,172.23,266.33,168.23,262.33,172.23,271.33" style="stroke:#181818;stroke-width:1;"/></g><!--link Notification Hub to Actores--><g class="link" data-entity-1="Notification Hub" data-entity-2="Actores" data-source-line="4" data-uid="lnk10" id="link_Notification Hub_Actores"><path d="M359.8,318.36 C353.56,327.02 347.44,337.36 344.23,347.89 C339.54,363.29 341.4958,375.4036 346.5558,389.0636" fill="none" id="Notification Hub-to-Actores" style="stroke:#181818;stroke-width:1;"/><polygon fill="#181818" points="348.64,394.69,349.2647,384.861,346.9032,390.0013,341.7628,387.6398,348.64,394.69" style="stroke:#181818;stroke-width:1;"/></g><!--link Notification Hub to Actores--><g class="link" data-entity-1="Notification Hub" data-entity-2="Actores" data-source-line="8" data-uid="lnk12" id="link_Notification Hub_Actores"><path d="M374.7046,323.2131 C371.1046,344.9931 367.3224,367.9564 363.7424,389.6964" fill="none" id="Notification Hub-Actores" style="stroke:#181818;stroke-width:1;stroke-dasharray:7.0,7.0;"/><rect fill="#FFFFFF" height="10" style="stroke:#181818;stroke-width:1.5;" width="10" x="370.52" y="313.28"/><rect fill="#FFFFFF" height="10" style="stroke:#181818;stroke-width:1.5;" width="10" x="357.93" y="389.63"/><text fill="#000000" font-family="sans-serif" font-size="13" lengthAdjust="spacing" textLength="73.0806" x="371.23" y="360.9569">WebSocket</text></g><!--link Gateway REST to Actores--><g class="link" data-entity-1="Gateway REST" data-entity-2="Actores" data-source-line="7" data-uid="lnk11" id="link_Gateway REST_Actores"><path d="M118.5152,91.3627 C80.0752,138.1327 6,244.24 59.23,317.89 C117.47,398.47 238.6235,414.4624 307.3335,417.0424" fill="none" id="Gateway REST-Actores" style="stroke:#181818;stroke-width:1;stroke-dasharray:7.0,7.0;"/><rect fill="#FFFFFF" height="10" style="stroke:#181818;stroke-width:1.5;" width="10" x="116.69" y="82.5"/><rect fill="#FFFFFF" height="10" style="stroke:#181818;stroke-width:1.5;" width="10" x="307.33" y="412.23"/><text fill="#000000" font-family="sans-serif" font-size="13" lengthAdjust="spacing" textLength="71.3159" x="47.23" y="237.6669">HTTP/REST</text></g><!--link Service RTP to Notification Hub--><g class="link" data-entity-1="Service RTP" data-entity-2="Notification Hub" data-source-line="9" data-uid="lnk13" id="link_Service RTP_Notification Hub"><path d="M210.68,194.98 C247.74,216.7 298.3432,246.3467 335.4632,268.0967" fill="none" id="Service RTP-to-Notification Hub" style="stroke:#181818;stroke-width:1;"/><polygon fill="#181818" points="340.64,271.13,334.897,263.1289,336.326,268.6023,330.8526,270.0313,340.64,271.13" style="stroke:#181818;stroke-width:1;"/></g><!--link Base de Datos SQLite to GMN14--><g class="link" data-entity-1="Base de Datos SQLite" data-entity-2="GMN14" data-source-line="12" data-uid="lnk16" id="link_Base de Datos SQLite_GMN14"><path d="M210.29,271.25 C235.49,257.12 269.85,240.47 302.73,233.1 C368.65,218.31 388.15,221.68 454.73,233.1 C508.72,242.35 568.2,266.63 601.91,281.81" fill="none" id="Base de Datos SQLite-GMN14" style="stroke:#181818;stroke-width:1;stroke-dasharray:7.0,7.0;"/></g><!--SRC=[TOzDRy8m38Rl-HMlu0hiliEaearmcAQCLDe1zU2cBaIK1gNUfcZQVr-w8lO1dABuVVpOFf3TqOOnqi6B5tVmCAjSZ_2XWFM2XDyfOlLWyWBJwHtMXiERium45Jto-pyGS-eO5UEUn7SmpuzE-1jzIlxQMHBdMonVooEVMV61kq9zAlLludWs6_y0kCKop_LDdwaBjZFwXKlZxOv5NLZph5-frWiZkCrMuElhXoouwvke8jZKcuAiiLlUHqHa3UzBPnMt5NhTKTfmFJXFnm9pRZaju2Z42RJHVmefxqkQ8eV9y9oSNm00]--></g></svg>