<svg xmlns="http://www.w3.org/2000/svg" xmlns:xlink="http://www.w3.org/1999/xlink" contentStyleType="text/css" data-diagram-type="DESCRIPTION" height="500px" preserveAspectRatio="none" style="width:505px;height:500px;background:#FFFFFF;" version="1.1" viewBox="0 0 505 500" width="505px" zoomAndPan="magnify"><defs/><g><!--cluster Prototipo SRTP--><g class="cluster" data-entity="Prototipo SRTP" data-source-line="1" data-uid="ent0002" id="cluster_Prototipo SRTP"><path d="M8.5,6 L129.2725,6 A3.75,3.75 0 0 1 131.7725,8.5 L138.7725,28.2969 L452.5,28.2969 A2.5,2.5 0 0 1 455,30.7969 L455,490.69 A2.5,2.5 0 0 1 452.5,493.19 L8.5,493.19 A2.5,2.5 0 0 1 6,490.69 L6,8.5 A2.5,2.5 0 0 1 8.5,6" fill="none" style="stroke:#000000;stroke-width:1.5;"/><line style="stroke:#000000;stroke-width:1.5;" x1="6" x2="138.7725" y1="28.2969" y2="28.2969"/><text fill="#000000" font-family="sans-serif" font-size="14" font-weight="bold" lengthAdjust="spacing" textLength="119.7725" x="10" y="20.9951">Prototipo SRTP</text></g><!--entity Gateway REST--><g class="entity" data-entity="Gateway REST" data-source-line="4" data-uid="ent0003" id="entity_Gateway REST"><rect fill="#F1F1F1" height="46.2969" rx="2.5" ry="2.5" style="stroke:#181818;stroke-width:0.5;" width="142.3066" x="239.85" y="41"/><rect fill="#F1F1F1" height="10" style="stroke:#181818;stroke-width:0.5;" width="15" x="362.1566" y="46"/><rect fill="#F1F1F1" height="2" style="stroke:#181818;stroke-width:0.5;" width="4" x="360.1566" y="48"/><rect fill="#F1F1F1" height="2" style="stroke:#181818;stroke-width:0.5;" width="4" x="360.1566" y="52"/><text fill="#000000" font-family="sans-serif" font-size="14" lengthAdjust="spacing" textLength="102.3066" x="254.85" y="73.9951">Gateway REST</text></g><!--entity Service RTP--><g class="entity" data-entity="Service RTP" data-source-line="4" data-uid="ent0004" id="entity_Service RTP"><rect fill="#F1F1F1" height="46.2969" rx="2.5" ry="2.5" style="stroke:#181818;stroke-width:0.5;" width="122.9131" x="178.54" y="148.3"/><rect fill="#F1F1F1" height="10" style="stroke:#181818;stroke-width:0.5;" width="15" x="281.4531" y="153.3"/><rect fill="#F1F1F1" height="2" style="stroke:#181818;stroke-width:0.5;" width="4" x="279.4531" y="155.3"/><rect fill="#F1F1F1" height="2" style="stroke:#181818;stroke-width:0.5;" width="4" x="279.4531" y="159.3"/><text fill="#000000" font-family="sans-serif" font-size="14" lengthAdjust="spacing" textLength="82.9131" x="193.54" y="181.2951">Service RTP</text></g><!--entity Base de Datos SQLite--><g class="entity" data-entity="Base de Datos SQLite" data-source-line="5" data-uid="ent0006" id="entity_Base de Datos SQLite"><rect fill="#F1F1F1" height="46.2969" rx="2.5" ry="2.5" style="stroke:#181818;stroke-width:0.5;" width="191.3477" x="22.33" y="289.6"/><rect fill="#F1F1F1" height="10" style="stroke:#181818;stroke-width:0.5;" width="15" x="193.6777" y="294.6"/><rect fill="#F1F1F1" height="2" style="stroke:#181818;stroke-width:0.5;" width="4" x="191.6777" y="296.6"/><rect fill="#F1F1F1" height="2" style="stroke:#181818;stroke-width:0.5;" width="4" x="191.6777" y="300.6"/><text fill="#000000" font-family="sans-serif" font-size="14" lengthAdjust="spacing" textLength="151.3477" x="37.33" y="322.5951">Base de Datos SQLite</text></g><!--entity Notification Hub--><g class="entity" data-entity="Notification Hub" data-source-line="6" data-uid="ent0008" id="entity_Notification Hub"><rect fill="#F1F1F1" height="46.2969" rx="2.5" ry="2.5" style="stroke:#181818;stroke-width:0.5;" width="153.0664" x="248.47" y="289.6"/><rect fill="#F1F1F1" height="10" style="stroke:#181818;stroke-width:0.5;" width="15" x="381.5364" y="294.6"/><rect fill="#F1F1F1" height="2" style="stroke:#181818;stroke-width:0.5;" width="4" x="379.5364" y="296.6"/><rect fill="#F1F1F1" height="2" style="stroke:#181818;stroke-width:0.5;" width="4" x="379.5364" y="300.6"/><text fill="#000000" font-family="sans-serif" font-size="14" lengthAdjust="spacing" textLength="113.0664" x="263.47" y="322.5951">Notification Hub</text></g><!--entity Actores--><g class="entity" data-entity="Actores" data-source-line="7" data-uid="ent0010" id="entity_Actores"><rect fill="#F1F1F1" height="46.2969" rx="2.5" ry="2.5" style="stroke:#181818;stroke-width:0.5;" width="92.9922" x="281.5" y="430.89"/><rect fill="#F1F1F1" height="10" style="stroke:#181818;stroke-width:0.5;" width="15" x="354.4922" y="435.89"/><rect fill="#F1F1F1" height="2" style="stroke:#181818;stroke-width:0.5;" width="4" x="352.4922" y="437.89"/><rect fill="#F1F1F1" height="2" style="stroke:#181818;stroke-width:0.5;" width="4" x="352.4922" y="441.89"/><text fill="#000000" font-family="sans-serif" font-size="14" lengthAdjust="spacing" textLength="52.9922" x="296.5" y="463.8851">Actores</text></g><!--link Gateway REST to Service RTP--><g class="link" data-entity-1="Gateway REST" data-entity-2="Service RTP" data-source-line="4" data-uid="lnk5" id="link_Gateway REST_Service RTP"><path d="M295.77,87.74 C283.79,105.51 270.5334,125.1646 258.5634,142.9246" fill="none" id="Gateway REST-to-Service RTP" style="stroke:#181818;stroke-width:1;"/><polygon fill="#181818" points="255.21,147.9,263.557,142.6724,258.0045,143.7538,256.9231,138.2013,255.21,147.9" style="stroke:#181818;stroke-width:1;"/></g><!--link Service RTP to Base de Datos SQLite--><g class="link" data-entity-1="Service RTP" data-entity-2="Base de Datos SQLite" data-source-line="5" data-uid="lnk7" id="link_Service RTP_Base de Datos SQLite"><path d="M220.4,194.83 C197.63,220.82 164.2536,258.9368 141.5036,284.9068" fill="none" id="Service RTP-to-Base de Datos SQLite" style="stroke:#181818;stroke-width:1;"/><polygon fill="#181818" points="137.55,289.42,146.4892,285.2859,140.8447,285.659,140.4716,280.0145,137.55,289.42" style="stroke:#181818;stroke-width:1;"/></g><!--link Service RTP to Notification Hub--><g class="link" data-entity-1="Service RTP" data-entity-2="Notification Hub" data-source-line="6" data-uid="lnk9" id="link_Service RTP_Notification Hub"><path d="M253.66,194.83 C269.52,220.82 292.4043,258.3285 308.2543,284.2985" fill="none" id="Service RTP-to-Notification Hub" style="stroke:#181818;stroke-width:1;"/><polygon fill="#181818" points="311.38,289.42,310.1057,279.6539,308.7752,285.1521,303.277,283.8216,311.38,289.42" style="stroke:#181818;stroke-width:1;"/></g><!--link Notification Hub to Actores--><g class="link" data-entity-1="Notification Hub" data-entity-2="Actores" data-source-line="7" data-uid="lnk11" id="link_Notification Hub_Actores"><path d="M306.84,336.26 C300.9,344.99 295.04,355.4 292,365.89 C287.67,380.83 287.37,386.04 292,400.89 C295.31,411.5 298.0377,417.0393 304.4477,425.6893" fill="none" id="Notification Hub-to-Actores" style="stroke:#181818;stroke-width:1;"/><polygon fill="#181818" points="308.02,430.51,305.8753,420.8975,305.0431,426.4928,299.4478,425.6606,308.02,430.51" style="stroke:#181818;stroke-width:1;"/></g><!--link Notification Hub to Actores--><g class="link" data-entity-1="Notification Hub" data-entity-2="Actores" data-source-line="16" data-uid="lnk13" id="link_Notification Hub_Actores"><path d="M324.64,336.32 C324.45,353.92 324.37,378.96 325,400.89 C325.28,410.59 325.4782,415.3015 326.0482,424.4815" fill="none" id="Notification Hub-to-Actores-1" style="stroke:#181818;stroke-width:1;stroke-dasharray:7,7;"/><polygon fill="#181818" points="326.42,430.47,329.8546,421.2394,326.1101,425.4796,321.8699,421.7352,326.42,430.47" style="stroke:#181818;stroke-width:1;"/><path d="M330,370.89 L330,395.89 L424,395.89 L424,380.89 L414,370.89 L330,370.89" fill="#FEFFDD" style="stroke:#181818;stroke-width:0.5;"/><path d="M414,370.89 L414,380.89 L424,380.89 L414,370.89" fill="#FEFFDD" style="stroke:#181818;stroke-width:0.5;"/><text fill="#000000" font-family="sans-serif" font-size="13" lengthAdjust="spacing" textLength="73.0806" x="336" y="387.9569">WebSocket</text></g><!--link Gateway REST to Actores--><g class="link" data-entity-1="Gateway REST" data-entity-2="Actores" data-source-line="10" data-uid="lnk12" id="link_Gateway REST_Actores"><path d="M320.5,87.69 C336.14,124.32 368.8,198.78 401,259.6 C408.28,273.34 413.51,275.05 419,289.6 C431.18,321.85 429.88,331.56 433,365.89 C434.41,381.38 441.2,387.67 433,400.89 C420.19,421.57 402.1026,432.2879 380.4426,439.9979" fill="none" id="Gateway REST-to-Actores" style="stroke:#181818;stroke-width:1;stroke-dasharray:7,7;"/><polygon fill="#181818" points="374.79,442.01,384.6102,442.7603,379.5005,440.3333,381.9275,435.2235,374.79,442.01" style="stroke:#181818;stroke-width:1;"/><path d="M406,229.6 L406,254.6 L498,254.6 L498,239.6 L488,229.6 L406,229.6" fill="#FEFFDD" style="stroke:#181818;stroke-width:0.5;"/><path d="M488,229.6 L488,239.6 L498,239.6 L488,229.6" fill="#FEFFDD" style="stroke:#181818;stroke-width:0.5;"/><text fill="#000000" font-family="sans-serif" font-size="13" lengthAdjust="spacing" textLength="71.3159" x="412" y="246.6669">HTTP/REST</text></g><!--SRC=[XOzDIWD148NtESKZc-WYoGq4nM0M8kFqW8imYqgd8iqqtKDtvGyHF8Fty1JUn9FOam4Td4YWDg_uUFLLJRgYPyOm2rwycDf3vKKsnCjW08o-tjxRGSwMjF6E8-fWd3OrMOw9MToHy8uEo6UgA34UNs6XE6oDPgIcia6wkILkA39MZ5iI7w4UxutmF-X3qbeRJPAkOxvP7h7UicMljVZ0iVmZFtD9dZ4lYcpQQE92U2yUwmq7QZGimNv-EARB_aUJIRSOS5uOwQerhaeHlxKfiLiTWTC2JxnKNbSiPmJwtvsL-AdkIhn-0m00]--></g></svg>