<svg xmlns="http://www.w3.org/2000/svg" xmlns:xlink="http://www.w3.org/1999/xlink" contentStyleType="text/css" data-diagram-type="STATE" height="667px" preserveAspectRatio="none" style="width:1111px;height:667px;background:#FFFFFF;" version="1.1" viewBox="0 0 1111 667" width="1111px" zoomAndPan="magnify"><defs/><g><ellipse cx="715.15" cy="16" fill="#222222" rx="10" ry="10" style="stroke:#222222;stroke-width:1;"/><g id="Creado"><rect fill="#F1F1F1" height="50" rx="12.5" ry="12.5" style="stroke:#181818;stroke-width:0.5;" width="70.1758" x="680.06" y="103"/><line style="stroke:#181818;stroke-width:0.5;" x1="680.06" x2="750.2358" y1="129.2969" y2="129.2969"/><text fill="#000000" font-family="sans-serif" font-size="14" lengthAdjust="spacing" textLength="50.1758" x="690.06" y="120.9951">Creado</text></g><g id="Validado_Beneficiario"><rect fill="#F1F1F1" height="50" rx="12.5" ry="12.5" style="stroke:#181818;stroke-width:0.5;" width="170.7529" x="436.77" y="230"/><line style="stroke:#181818;stroke-width:0.5;" x1="436.77" x2="607.5229" y1="256.2969" y2="256.2969"/><text fill="#000000" font-family="sans-serif" font-size="14" lengthAdjust="spacing" textLength="150.7529" x="446.77" y="247.9951">Validado_Beneficiario</text></g><g id="Enrutado"><rect fill="#F1F1F1" height="50" rx="12.5" ry="12.5" style="stroke:#181818;stroke-width:0.5;" width="83.8682" x="466.21" y="357"/><line style="stroke:#181818;stroke-width:0.5;" x1="466.21" x2="550.0782" y1="383.2969" y2="383.2969"/><text fill="#000000" font-family="sans-serif" font-size="14" lengthAdjust="spacing" textLength="63.8682" x="476.21" y="374.9951">Enrutado</text></g><g id="Validado_Payer"><rect fill="#F1F1F1" height="50" rx="12.5" ry="12.5" style="stroke:#181818;stroke-width:0.5;" width="127.5293" x="289.38" y="484"/><line style="stroke:#181818;stroke-width:0.5;" x1="289.38" x2="416.9093" y1="510.2969" y2="510.2969"/><text fill="#000000" font-family="sans-serif" font-size="14" lengthAdjust="spacing" textLength="107.5293" x="299.38" y="501.9951">Validado_Payer</text></g><g id="Aceptado"><rect fill="#F1F1F1" height="50" rx="12.5" ry="12.5" style="stroke:#181818;stroke-width:0.5;" width="86.2949" x="7" y="611"/><line style="stroke:#181818;stroke-width:0.5;" x1="7" x2="93.2949" y1="637.2969" y2="637.2969"/><text fill="#000000" font-family="sans-serif" font-size="14" lengthAdjust="spacing" textLength="66.2949" x="17" y="628.9951">Aceptado</text></g><g id="Rechazado"><rect fill="#F1F1F1" height="50" rx="12.5" ry="12.5" style="stroke:#181818;stroke-width:0.5;" width="96.8701" x="346.71" y="611"/><line style="stroke:#181818;stroke-width:0.5;" x1="346.71" x2="443.5801" y1="637.2969" y2="637.2969"/><text fill="#000000" font-family="sans-serif" font-size="14" lengthAdjust="spacing" textLength="76.8701" x="356.71" y="628.9951">Rechazado</text></g><g id="Cancelado"><rect fill="#F1F1F1" height="50" rx="12.5" ry="12.5" style="stroke:#181818;stroke-width:0.5;" width="93.459" x="759.42" y="611"/><line style="stroke:#181818;stroke-width:0.5;" x1="759.42" x2="852.879" y1="637.2969" y2="637.2969"/><text fill="#000000" font-family="sans-serif" font-size="14" lengthAdjust="spacing" textLength="73.459" x="769.42" y="628.9951">Cancelado</text></g><g class="entity" data-entity="GMN2" data-source-line="15" data-uid="ent0003" id="entity_GMN2"><path d="M785.22,115.43 L785.22,124 L750.55,128 L785.22,132 L785.22,140.5628 A0,0 0 0 0 785.22,140.5628 L1039.0711,140.5628 A0,0 0 0 0 1039.0711,140.5628 L1039.0711,125.43 L1029.0711,115.43 L785.22,115.43 A0,0 0 0 0 785.22,115.43" fill="#FAFAFA" style="stroke:#181818;stroke-width:0.5;"/><path d="M1029.0711,115.43 L1029.0711,125.43 L1039.0711,125.43 L1029.0711,115.43" fill="#FAFAFA" style="stroke:#181818;stroke-width:0.5;"/><text fill="#000000" font-family="sans-serif" font-size="13" lengthAdjust="spacing" textLength="232.8511" x="791.22" y="132.4969">Solicitud iniciada por el Beneficiario</text></g><g class="entity" data-entity="GMN5" data-source-line="18" data-uid="ent0006" id="entity_GMN5"><path d="M642.96,242.43 L642.96,251 L607.72,255 L642.96,259 L642.96,267.5628 A0,0 0 0 0 642.96,267.5628 L855.3355,267.5628 A0,0 0 0 0 855.3355,267.5628 L855.3355,252.43 L845.3355,242.43 L642.96,242.43 A0,0 0 0 0 642.96,242.43" fill="#FAFAFA" style="stroke:#181818;stroke-width:0.5;"/><path d="M845.3355,242.43 L845.3355,252.43 L855.3355,252.43 L845.3355,242.43" fill="#FAFAFA" style="stroke:#181818;stroke-width:0.5;"/><text fill="#000000" font-family="sans-serif" font-size="13" lengthAdjust="spacing" textLength="191.3755" x="648.96" y="259.4969">Validada por PSP Beneficiario</text></g><g class="entity" data-entity="GMN8" data-source-line="21" data-uid="ent0009" id="entity_GMN8"><path d="M585.25,369.43 L585.25,378 L550.48,382 L585.25,386 L585.25,394.5628 A0,0 0 0 0 585.25,394.5628 L767.0488,394.5628 A0,0 0 0 0 767.0488,394.5628 L767.0488,379.43 L757.0488,369.43 L585.25,369.43 A0,0 0 0 0 585.25,369.43" fill="#FAFAFA" style="stroke:#181818;stroke-width:0.5;"/><path d="M757.0488,369.43 L757.0488,379.43 L767.0488,379.43 L757.0488,369.43" fill="#FAFAFA" style="stroke:#181818;stroke-width:0.5;"/><text fill="#000000" font-family="sans-serif" font-size="13" lengthAdjust="spacing" textLength="160.7988" x="591.25" y="386.4969">Enrutada al PSP Pagador</text></g><g class="entity" data-entity="GMN11" data-source-line="24" data-uid="ent0012" id="entity_GMN11"><path d="M451.66,496.43 L451.66,505 L417.23,509 L451.66,513 L451.66,521.5628 A0,0 0 0 0 451.66,521.5628 L640.6317,521.5628 A0,0 0 0 0 640.6317,521.5628 L640.6317,506.43 L630.6317,496.43 L451.66,496.43 A0,0 0 0 0 451.66,496.43" fill="#FAFAFA" style="stroke:#181818;stroke-width:0.5;"/><path d="M630.6317,496.43 L630.6317,506.43 L640.6317,506.43 L630.6317,496.43" fill="#FAFAFA" style="stroke:#181818;stroke-width:0.5;"/><text fill="#000000" font-family="sans-serif" font-size="13" lengthAdjust="spacing" textLength="167.9717" x="457.66" y="513.4969">Validada por PSP Pagador</text></g><g class="entity" data-entity="GMN14" data-source-line="27" data-uid="ent0015" id="entity_GMN14"><path d="M128.64,623.43 L128.64,632 L93.64,636 L128.64,640 L128.64,648.5628 A0,0 0 0 0 128.64,648.5628 L311.6512,648.5628 A0,0 0 0 0 311.6512,648.5628 L311.6512,633.43 L301.6512,623.43 L128.64,623.43 A0,0 0 0 0 128.64,623.43" fill="#FAFAFA" style="stroke:#181818;stroke-width:0.5;"/><path d="M301.6512,623.43 L301.6512,633.43 L311.6512,633.43 L301.6512,623.43" fill="#FAFAFA" style="stroke:#181818;stroke-width:0.5;"/><text fill="#000000" font-family="sans-serif" font-size="13" lengthAdjust="spacing" textLength="162.0112" x="134.64" y="640.4969">Aprobada por el Pagador</text></g><g class="entity" data-entity="GMN17" data-source-line="30" data-uid="ent0018" id="entity_GMN17"><path d="M478.39,623.43 L478.39,632 L443.74,636 L478.39,640 L478.39,648.5628 A0,0 0 0 0 478.39,648.5628 L669.9134,648.5628 A0,0 0 0 0 669.9134,648.5628 L669.9134,633.43 L659.9134,623.43 L478.39,623.43 A0,0 0 0 0 478.39,623.43" fill="#FAFAFA" style="stroke:#181818;stroke-width:0.5;"/><path d="M659.9134,623.43 L659.9134,633.43 L669.9134,633.43 L659.9134,623.43" fill="#FAFAFA" style="stroke:#181818;stroke-width:0.5;"/><text fill="#000000" font-family="sans-serif" font-size="13" lengthAdjust="spacing" textLength="170.5234" x="484.39" y="640.4969">Rechazada por el Pagador</text></g><g class="entity" data-entity="GMN20" data-source-line="33" data-uid="ent0021" id="entity_GMN20"><path d="M887.6,623.43 L887.6,632 L853.28,636 L887.6,640 L887.6,648.5628 A0,0 0 0 0 887.6,648.5628 L1104.6918,648.5628 A0,0 0 0 0 1104.6918,648.5628 L1104.6918,633.43 L1094.6918,623.43 L887.6,623.43 A0,0 0 0 0 887.6,623.43" fill="#FAFAFA" style="stroke:#181818;stroke-width:0.5;"/><path d="M1094.6918,623.43 L1094.6918,633.43 L1104.6918,633.43 L1094.6918,623.43" fill="#FAFAFA" style="stroke:#181818;stroke-width:0.5;"/><text fill="#000000" font-family="sans-serif" font-size="13" lengthAdjust="spacing" textLength="196.0918" x="893.6" y="640.4969">Cancelada por cualquier actor</text></g><!--link *start* to Creado--><g class="link" data-entity-1=".start." data-entity-2="Creado" data-source-line="3" data-uid="lnk4" id="link_.start._Creado"><path d="M715.15,26.38 C715.15,43.11 715.15,72.59 715.15,96.63" fill="none" id="*start*-to-Creado" style="stroke:#181818;stroke-width:1;"/><polygon fill="#181818" points="715.15,102.63,719.15,93.63,715.15,97.63,711.15,93.63,715.15,102.63" style="stroke:#181818;stroke-width:1;"/><text fill="#000000" font-family="sans-serif" font-size="13" lengthAdjust="spacing" textLength="33.8013" x="716.15" y="69.0669">crear</text></g><!--link Creado to Validado_Beneficiario--><g class="link" data-entity-1="Creado" data-entity-2="Validado_Beneficiario" data-source-line="4" data-uid="lnk6" id="link_Creado_Validado_Beneficiario"><path d="M679.75,151.93 C645.8,173.92 599.736,203.7483 564.996,226.2483" fill="none" id="Creado-to-Validado_Beneficiario" style="stroke:#181818;stroke-width:1;"/><polygon fill="#181818" points="559.96,229.51,569.6885,227.9748,564.1567,226.7919,565.3396,221.2601,559.96,229.51" style="stroke:#181818;stroke-width:1;"/><text fill="#000000" font-family="sans-serif" font-size="13" lengthAdjust="spacing" textLength="131.1362" x="632.15" y="196.0669">validate_beneficiary</text></g><!--link Validado_Beneficiario to Enrutado--><g class="link" data-entity-1="Validado_Beneficiario" data-entity-2="Enrutado" data-source-line="5" data-uid="lnk8" id="link_Validado_Beneficiario_Enrutado"><path d="M519.41,280.4 C516.95,302.42 514.0094,328.6975 511.5394,350.6975" fill="none" id="Validado_Beneficiario-to-Enrutado" style="stroke:#181818;stroke-width:1;"/><polygon fill="#181818" points="510.87,356.66,515.8492,348.1625,511.4279,351.6912,507.8991,347.2699,510.87,356.66" style="stroke:#181818;stroke-width:1;"/><text fill="#000000" font-family="sans-serif" font-size="13" lengthAdjust="spacing" textLength="48.2295" x="517.15" y="323.0669">enrutar</text></g><!--link Enrutado to Validado_Payer--><g class="link" data-entity-1="Enrutado" data-entity-2="Validado_Payer" data-source-line="6" data-uid="lnk10" id="link_Enrutado_Validado_Payer"><path d="M477.89,407.4 C450.58,429.42 415.2812,457.8943 387.9912,479.8943" fill="none" id="Enrutado-to-Validado_Payer" style="stroke:#181818;stroke-width:1;"/><polygon fill="#181818" points="383.32,483.66,392.8372,481.1256,387.2126,480.5219,387.8163,474.8974,383.32,483.66" style="stroke:#181818;stroke-width:1;"/><text fill="#000000" font-family="sans-serif" font-size="13" lengthAdjust="spacing" textLength="99.0615" x="441.15" y="450.0669">validado_payer</text></g><!--link Validado_Payer to Aceptado--><g class="link" data-entity-1="Validado_Payer" data-entity-2="Aceptado" data-source-line="7" data-uid="lnk12" id="link_Validado_Payer_Aceptado"><path d="M294.01,534.4 C235.11,558.7 151.6365,593.1316 99.0165,614.8416" fill="none" id="Validado_Payer-to-Aceptado" style="stroke:#181818;stroke-width:1;"/><polygon fill="#181818" points="93.47,617.13,103.3153,617.3951,98.0921,615.223,100.2641,609.9998,93.47,617.13" style="stroke:#181818;stroke-width:1;"/><text fill="#000000" font-family="sans-serif" font-size="13" lengthAdjust="spacing" textLength="49.772" x="221.15" y="577.0669">aceptar</text></g><!--link Validado_Payer to Rechazado--><g class="link" data-entity-1="Validado_Payer" data-entity-2="Rechazado" data-source-line="8" data-uid="lnk14" id="link_Validado_Payer_Rechazado"><path d="M361.35,534.4 C368.75,556.42 377.6695,582.9723 385.0595,604.9723" fill="none" id="Validado_Payer-to-Rechazado" style="stroke:#181818;stroke-width:1;"/><polygon fill="#181818" points="386.97,610.66,387.896,600.8548,385.3779,605.9203,380.3124,603.4022,386.97,610.66" style="stroke:#181818;stroke-width:1;"/><text fill="#000000" font-family="sans-serif" font-size="13" lengthAdjust="spacing" textLength="56.8306" x="378.15" y="577.0669">rechazar</text></g><!--link Creado to Cancelado--><g class="link" data-entity-1="Creado" data-entity-2="Cancelado" data-source-line="9" data-uid="lnk16" id="link_Creado_Cancelado"><path d="M750.55,147.76 C806.26,177.86 908.15,235.44 908.15,254 C908.15,254 908.15,254 908.15,510 C908.15,552.29 877.4207,584.5281 848.3107,606.8581" fill="none" id="Creado-to-Cancelado" style="stroke:#181818;stroke-width:1;"/><polygon fill="#181818" points="843.55,610.51,853.1256,608.206,847.5172,607.4668,848.2564,601.8584,843.55,610.51" style="stroke:#181818;stroke-width:1;"/><text fill="#000000" font-family="sans-serif" font-size="13" lengthAdjust="spacing" textLength="55.4214" x="909.15" y="386.5669">cancelar</text></g><!--link Validado_Beneficiario to Cancelado--><g class="link" data-entity-1="Validado_Beneficiario" data-entity-2="Cancelado" data-source-line="10" data-uid="lnk17" id="link_Validado_Beneficiario_Cancelado"><path d="M607.79,278.34 C675.52,297.86 762.21,327.6 784.15,357 C841.61,434.03 824.4482,552.8834 813.2682,605.0134" fill="none" id="Validado_Beneficiario-to-Cancelado" style="stroke:#181818;stroke-width:1;"/><polygon fill="#181818" points="812.01,610.88,817.8083,602.9189,813.0585,605.9912,809.9862,601.2413,812.01,610.88" style="stroke:#181818;stroke-width:1;"/><text fill="#000000" font-family="sans-serif" font-size="13" lengthAdjust="spacing" textLength="55.4214" x="822.15" y="450.0669">cancelar</text></g><!--link Enrutado to Cancelado--><g class="link" data-entity-1="Enrutado" data-entity-2="Cancelado" data-source-line="11" data-uid="lnk18" id="link_Enrutado_Cancelado"><path d="M549.2,407.48 C580.28,426.74 623.4,455.08 658.15,484 C707.1,524.74 753.7067,575.1141 781.2267,606.2541" fill="none" id="Enrutado-to-Cancelado" style="stroke:#181818;stroke-width:1;"/><polygon fill="#181818" points="785.2,610.75,782.2374,601.3573,781.8889,607.0034,776.2428,606.655,785.2,610.75" style="stroke:#181818;stroke-width:1;"/><text fill="#000000" font-family="sans-serif" font-size="13" lengthAdjust="spacing" textLength="55.4214" x="712.15" y="513.5669">cancelar</text></g><!--link Validado_Payer to Cancelado--><g class="link" data-entity-1="Validado_Payer" data-entity-2="Cancelado" data-source-line="12" data-uid="lnk19" id="link_Validado_Payer_Cancelado"><path d="M417.22,529.13 C422.94,530.79 428.64,532.44 434.15,534 C550.67,567.08 682.5799,602.334 753.2699,621.054" fill="none" id="Validado_Payer-to-Cancelado" style="stroke:#181818;stroke-width:1;"/><polygon fill="#181818" points="759.07,622.59,751.3939,616.4193,754.2366,621.31,749.3459,624.1528,759.07,622.59" style="stroke:#181818;stroke-width:1;"/><text fill="#000000" font-family="sans-serif" font-size="13" lengthAdjust="spacing" textLength="55.4214" x="599.15" y="577.0669">cancelar</text></g><!--SRC=[ZLB1QiCm3BtxAtGUz0Ts67Hbzx32BcCKrL4RCyVED6VGVVtasCcIOfhUdkNtdlGiVtyQro5Z2wrtNZViMuB0FIdr_l01cyqJx9Ymzl08MW2hV8mtRsXDBOV3Cpaw6MsGJIJ-3FL0X-DKlwWoETgyEEv3Qa43P3ML5cqgl11F_bBeOa5TtKV9LbENBN60HTOhwGP_4uqJNkJReTDaS_Y4-KQE8dsHvBRX_s15dd8-4B0vDm7yAQz50UozbIb2NuDnSPmQeVCCP64-eI9NGtIuiYd64TTSJrxLlhhBR0mh-WmHq0xo2izomQjZ38zGwhzYC6vSfDkE_N7s32lAwHU8TCJtQgT5YNR4IQjxj5-zaOMY3ZE3Fm00]--></g></svg>