<svg xmlns="http://www.w3.org/2000/svg" xmlns:xlink="http://www.w3.org/1999/xlink" contentStyleType="text/css" data-diagram-type="CLASS" height="670px" preserveAspectRatio="none" style="width:240px;height:670px;background:#FFFFFF;" version="1.1" viewBox="0 0 240 670" width="240px" zoomAndPan="magnify"><defs/><g><!--class Actor--><g class="entity" data-entity="Actor" data-source-line="1" data-uid="ent0002" id="entity_Actor"><rect fill="#F1F1F1" height="194.6719" rx="2.5" ry="2.5" style="stroke:#181818;stroke-width:0.5;" width="173.3965" x="33.47" y="7"/><ellipse cx="97.3758" cy="23" fill="#ADD1B2" rx="11" ry="11" style="stroke:#181818;stroke-width:1;"/><path d="M101.4851,29 L93.7664,29 L93.7664,16.6094 L101.4851,16.6094 L101.4851,18.7656 L96.2195,18.7656 L96.2195,21.4375 L100.9851,21.4375 L100.9851,23.5938 L96.2195,23.5938 L96.2195,26.8438 L101.4851,26.8438 L101.4851,29 Z " fill="#000000"/><text fill="#000000" font-family="sans-serif" font-size="14" lengthAdjust="spacing" textLength="37.085" x="117.8758" y="27.8467">Actor</text><line style="stroke:#181818;stroke-width:0.5;" x1="34.47" x2="205.8665" y1="39" y2="39"/><ellipse cx="44.47" cy="52.6484" fill="#000000" rx="3" ry="3" style="stroke:#000000;stroke-width:1;"/><text fill="#000000" font-family="sans-serif" font-size="14" lengthAdjust="spacing" textLength="115.7188" x="53.47" y="55.9951">id : integer &#171;PK&#187;</text><ellipse cx="44.47" cy="68.9453" fill="#000000" rx="3" ry="3" style="stroke:#000000;stroke-width:1;"/><text fill="#000000" font-family="sans-serif" font-size="14" lengthAdjust="spacing" textLength="124.0449" x="53.47" y="72.292">username : string</text><ellipse cx="44.47" cy="85.2422" fill="#000000" rx="3" ry="3" style="stroke:#000000;stroke-width:1;"/><text fill="#000000" font-family="sans-serif" font-size="14" lengthAdjust="spacing" textLength="120.5176" x="53.47" y="88.5889">password : string</text><ellipse cx="44.47" cy="101.5391" fill="#000000" rx="3" ry="3" style="stroke:#000000;stroke-width:1;"/><text fill="#000000" font-family="sans-serif" font-size="14" lengthAdjust="spacing" textLength="93.5088" x="53.47" y="104.8857">name : string</text><ellipse cx="44.47" cy="117.8359" fill="#000000" rx="3" ry="3" style="stroke:#000000;stroke-width:1;"/><text fill="#000000" font-family="sans-serif" font-size="14" lengthAdjust="spacing" textLength="80.6299" x="53.47" y="121.1826">role : string</text><ellipse cx="44.47" cy="134.1328" fill="#000000" rx="3" ry="3" style="stroke:#000000;stroke-width:1;"/><text fill="#000000" font-family="sans-serif" font-size="14" lengthAdjust="spacing" textLength="119.7041" x="53.47" y="137.4795">photo_url : string</text><ellipse cx="44.47" cy="150.4297" fill="#000000" rx="3" ry="3" style="stroke:#000000;stroke-width:1;"/><text fill="#000000" font-family="sans-serif" font-size="14" lengthAdjust="spacing" textLength="84.0342" x="53.47" y="153.7764">iban : string</text><ellipse cx="44.47" cy="166.7266" fill="#000000" rx="3" ry="3" style="stroke:#000000;stroke-width:1;"/><text fill="#000000" font-family="sans-serif" font-size="14" lengthAdjust="spacing" textLength="100.1875" x="53.47" y="170.0732">balance : float</text><ellipse cx="44.47" cy="183.0234" fill="#000000" rx="3" ry="3" style="stroke:#000000;stroke-width:1;"/><text fill="#000000" font-family="sans-serif" font-size="14" lengthAdjust="spacing" textLength="147.3965" x="53.47" y="186.3701">psp_id : integer &#171;FK&#187;</text><line style="stroke:#181818;stroke-width:0.5;" x1="34.47" x2="205.8665" y1="193.6719" y2="193.6719"/></g><!--class RTP--><g class="entity" data-entity="RTP" data-source-line="13" data-uid="ent0003" id="entity_RTP"><rect fill="#F1F1F1" height="178.375" rx="2.5" ry="2.5" style="stroke:#181818;stroke-width:0.5;" width="226.3408" x="7" y="278.67"/><ellipse cx="102.5596" cy="294.67" fill="#ADD1B2" rx="11" ry="11" style="stroke:#181818;stroke-width:1;"/><path d="M106.6689,300.67 L98.9502,300.67 L98.9502,288.2794 L106.6689,288.2794 L106.6689,290.4356 L101.4033,290.4356 L101.4033,293.1075 L106.1689,293.1075 L106.1689,295.2637 L101.4033,295.2637 L101.4033,298.5137 L106.6689,298.5137 L106.6689,300.67 Z " fill="#000000"/><text fill="#000000" font-family="sans-serif" font-size="14" lengthAdjust="spacing" textLength="26.7217" x="123.0596" y="299.5167">RTP</text><line style="stroke:#181818;stroke-width:0.5;" x1="8" x2="232.3408" y1="310.67" y2="310.67"/><ellipse cx="18" cy="324.3184" fill="#000000" rx="3" ry="3" style="stroke:#000000;stroke-width:1;"/><text fill="#000000" font-family="sans-serif" font-size="14" lengthAdjust="spacing" textLength="115.7188" x="27" y="327.6651">id : integer &#171;PK&#187;</text><ellipse cx="18" cy="340.6153" fill="#000000" rx="3" ry="3" style="stroke:#000000;stroke-width:1;"/><text fill="#000000" font-family="sans-serif" font-size="14" lengthAdjust="spacing" textLength="84.0342" x="27" y="343.962">iban : string</text><ellipse cx="18" cy="356.9122" fill="#000000" rx="3" ry="3" style="stroke:#000000;stroke-width:1;"/><text fill="#000000" font-family="sans-serif" font-size="14" lengthAdjust="spacing" textLength="99.0869" x="27" y="360.2589">amount : float</text><ellipse cx="18" cy="373.2091" fill="#000000" rx="3" ry="3" style="stroke:#000000;stroke-width:1;"/><text fill="#000000" font-family="sans-serif" font-size="14" lengthAdjust="spacing" textLength="96.8242" x="27" y="376.5557">status : string</text><ellipse cx="18" cy="389.5059" fill="#000000" rx="3" ry="3" style="stroke:#000000;stroke-width:1;"/><text fill="#000000" font-family="sans-serif" font-size="14" lengthAdjust="spacing" textLength="152.332" x="27" y="392.8526">timestamp : datetime</text><ellipse cx="18" cy="405.8028" fill="#000000" rx="3" ry="3" style="stroke:#000000;stroke-width:1;"/><text fill="#000000" font-family="sans-serif" font-size="14" lengthAdjust="spacing" textLength="200.3408" x="27" y="409.1495">beneficiary_id : integer &#171;FK&#187;</text><ellipse cx="18" cy="422.0997" fill="#000000" rx="3" ry="3" style="stroke:#000000;stroke-width:1;"/><text fill="#000000" font-family="sans-serif" font-size="14" lengthAdjust="spacing" textLength="162.4492" x="27" y="425.4464">payer_id : integer &#171;FK&#187;</text><ellipse cx="18" cy="438.3966" fill="#000000" rx="3" ry="3" style="stroke:#000000;stroke-width:1;"/><text fill="#000000" font-family="sans-serif" font-size="14" lengthAdjust="spacing" textLength="109.6279" x="27" y="441.7432">concept : string</text><line style="stroke:#181818;stroke-width:0.5;" x1="8" x2="232.3408" y1="449.045" y2="449.045"/></g><!--class Log--><g class="entity" data-entity="Log" data-source-line="24" data-uid="ent0004" id="entity_Log"><rect fill="#F1F1F1" height="129.4844" rx="2.5" ry="2.5" style="stroke:#181818;stroke-width:0.5;" width="178.332" x="31" y="534.05"/><ellipse cx="103.29" cy="550.05" fill="#ADD1B2" rx="11" ry="11" style="stroke:#181818;stroke-width:1;"/><path d="M107.3994,556.05 L99.6807,556.05 L99.6807,543.6594 L107.3994,543.6594 L107.3994,545.8156 L102.1338,545.8156 L102.1338,548.4875 L106.8994,548.4875 L106.8994,550.6438 L102.1338,550.6438 L102.1338,553.8938 L107.3994,553.8938 L107.3994,556.05 Z " fill="#000000"/><text fill="#000000" font-family="sans-serif" font-size="14" lengthAdjust="spacing" textLength="25.252" x="123.79" y="554.8967">Log</text><line style="stroke:#181818;stroke-width:0.5;" x1="32" x2="208.332" y1="566.05" y2="566.05"/><ellipse cx="42" cy="579.6984" fill="#000000" rx="3" ry="3" style="stroke:#000000;stroke-width:1;"/><text fill="#000000" font-family="sans-serif" font-size="14" lengthAdjust="spacing" textLength="115.7188" x="51" y="583.0451">id : integer &#171;PK&#187;</text><ellipse cx="42" cy="595.9953" fill="#000000" rx="3" ry="3" style="stroke:#000000;stroke-width:1;"/><text fill="#000000" font-family="sans-serif" font-size="14" lengthAdjust="spacing" textLength="142.4609" x="51" y="599.342">rtp_id : integer &#171;FK&#187;</text><ellipse cx="42" cy="612.2922" fill="#000000" rx="3" ry="3" style="stroke:#000000;stroke-width:1;"/><text fill="#000000" font-family="sans-serif" font-size="14" lengthAdjust="spacing" textLength="125.166" x="51" y="615.6389">old_status : string</text><ellipse cx="42" cy="628.5891" fill="#000000" rx="3" ry="3" style="stroke:#000000;stroke-width:1;"/><text fill="#000000" font-family="sans-serif" font-size="14" lengthAdjust="spacing" textLength="132.7607" x="51" y="631.9357">new_status : string</text><ellipse cx="42" cy="644.8859" fill="#000000" rx="3" ry="3" style="stroke:#000000;stroke-width:1;"/><text fill="#000000" font-family="sans-serif" font-size="14" lengthAdjust="spacing" textLength="152.332" x="51" y="648.2326">timestamp : datetime</text><line style="stroke:#181818;stroke-width:0.5;" x1="32" x2="208.332" y1="655.5344" y2="655.5344"/></g><!--link Actor to RTP--><g class="link" data-entity-1="Actor" data-entity-2="RTP" data-source-line="32" data-uid="lnk5" id="link_Actor_RTP"><path codeLine="32" d="M50.5283,209.4607 C45.9883,224.7907 46.95,233.07 51.17,248.67 C53.87,258.65 50.203,252.2582 54.613,261.9782" fill="none" id="Actor-RTP" style="stroke:#181818;stroke-width:1;"/><line style="stroke:#181818;stroke-width:1;" x1="47.8288" x2="55.4995" y1="204.4895" y2="206.7612"/><line style="stroke:#181818;stroke-width:1;" x1="46.9769" x2="54.6476" y1="207.366" y2="209.6377"/><line style="stroke:#181818;stroke-width:1;" x1="50.5283" x2="52.8" y1="209.4607" y2="201.79"/><line style="stroke:#181818;stroke-width:1;" x1="58.7447" x2="67.5139" y1="271.0848" y2="275.891"/><line style="stroke:#181818;stroke-width:1;" x1="58.7447" x2="56.5861" y1="271.0848" y2="280.849"/><line style="stroke:#181818;stroke-width:1;" x1="58.7447" x2="62.05" y1="271.0848" y2="278.37"/><ellipse cx="56.2657" cy="265.6208" fill="none" rx="4" ry="4" style="stroke:#181818;stroke-width:1;"/><text fill="#000000" font-family="sans-serif" font-size="13" lengthAdjust="spacing" textLength="90.8032" x="52.17" y="244.7369">beneficiary_id</text></g><!--link Actor to RTP--><g class="link" data-entity-1="Actor" data-entity-2="RTP" data-source-line="33" data-uid="lnk6" id="link_Actor_RTP"><path codeLine="33" d="M147.3366,209.7402 C149.2566,225.3502 148.89,233.45 147.17,248.67 C146.07,258.4 147.7715,250.7935 145.9115,260.7935" fill="none" id="Actor-RTP-1" style="stroke:#181818;stroke-width:1;"/><line style="stroke:#181818;stroke-width:1;" x1="142.8782" x2="150.8184" y1="206.2584" y2="205.2818"/><line style="stroke:#181818;stroke-width:1;" x1="143.2445" x2="151.1846" y1="209.236" y2="208.2593"/><line style="stroke:#181818;stroke-width:1;" x1="147.3366" x2="146.36" y1="209.7402" y2="201.8"/><line style="stroke:#181818;stroke-width:1;" x1="144.0829" x2="148.5188" y1="270.6249" y2="279.5872"/><line style="stroke:#181818;stroke-width:1;" x1="144.0829" x2="136.7212" y1="270.6249" y2="277.3928"/><line style="stroke:#181818;stroke-width:1;" x1="144.0829" x2="142.62" y1="270.6249" y2="278.49"/><ellipse cx="145.1801" cy="264.7261" fill="none" rx="4" ry="4" style="stroke:#181818;stroke-width:1;"/><text fill="#000000" font-family="sans-serif" font-size="13" lengthAdjust="spacing" textLength="55.6182" x="148.17" y="244.7369">payer_id</text></g><!--link RTP to Log--><g class="link" data-entity-1="RTP" data-entity-2="Log" data-source-line="34" data-uid="lnk7" id="link_RTP_Log"><path codeLine="34" d="M120.17,465.37 C120.17,490.78 120.17,492 120.17,515.64" fill="none" id="RTP-Log" style="stroke:#181818;stroke-width:1;"/><line style="stroke:#181818;stroke-width:1;" x1="116.17" x2="124.17" y1="461.37" y2="461.37"/><line style="stroke:#181818;stroke-width:1;" x1="116.17" x2="124.17" y1="464.37" y2="464.37"/><line style="stroke:#181818;stroke-width:1;" x1="120.17" x2="120.17" y1="465.37" y2="457.37"/><line style="stroke:#181818;stroke-width:1;" x1="120.17" x2="126.17" y1="525.64" y2="533.64"/><line style="stroke:#181818;stroke-width:1;" x1="120.17" x2="114.17" y1="525.64" y2="533.64"/><line style="stroke:#181818;stroke-width:1;" x1="120.17" x2="120.17" y1="525.64" y2="533.64"/><ellipse cx="120.17" cy="519.64" fill="none" rx="4" ry="4" style="stroke:#181818;stroke-width:1;"/><text fill="#000000" font-family="sans-serif" font-size="13" lengthAdjust="spacing" textLength="37.0576" x="121.17" y="500.1169">rtp_id</text></g><!--SRC=[ZPB1QiCm38RlUGgV1ts1K0gxxB8TojWzg8cQ6Hp9o0ebj7ltsN57SPhI7VNhb_L_maXgTJAlhRAOSsNCYx6TgOqbnHx5RBVxzzrkriU0GZ1Wx0OLI_siUWZXnDALwhrFs2qdlrcv6SMLiZq0bSe1752Rfe-EGVDmyCqYw5iA-bDLc94-l_PFWEutmS0ZQR4eAEWOIflQ0QC- -2Xte9Zgd1G9ZxQr8DDgkdom2ULXj-L8wlMsxmRqmVqJ857_y65sNRF6GdXg_iqOm-IVShbiDdoURrmlgDSSVynLAg-TX5DV8_y2]--></g></svg>