<svg xmlns="http://www.w3.org/2000/svg" xmlns:xlink="http://www.w3.org/1999/xlink" contentStyleType="text/css" data-diagram-type="STATE" height="466px" preserveAspectRatio="none" style="width:1053px;height:466px;background:#FFFFFF;" version="1.1" viewBox="0 0 1053 466" width="1053px" zoomAndPan="magnify"><defs/><g><ellipse cx="830.81" cy="16" fill="#222222" rx="10" ry="10" style="stroke:#222222;stroke-width:1;"/><g id="Creado"><rect fill="#D3D3D3" height="50" rx="12.5" ry="12.5" style="stroke:#181818;stroke-width:2;" width="70.1758" x="795.72" y="55"/><line style="stroke:#181818;stroke-width:2;" x1="795.72" x2="865.8958" y1="81.2969" y2="81.2969"/><text fill="#000000" font-family="sans-serif" font-size="14" lengthAdjust="spacing" textLength="50.1758" x="805.72" y="72.9951">Creado</text></g><g id="Validado_Beneficiario"><rect fill="#D3D3D3" height="50" rx="12.5" ry="12.5" style="stroke:#181818;stroke-width:2;" width="170.7529" x="564.44" y="134"/><line style="stroke:#181818;stroke-width:2;" x1="564.44" x2="735.1929" y1="160.2969" y2="160.2969"/><text fill="#000000" font-family="sans-serif" font-size="14" lengthAdjust="spacing" textLength="150.7529" x="574.44" y="151.9951">Validado_Beneficiario</text></g><g id="Enrutado"><rect fill="#D3D3D3" height="50" rx="12.5" ry="12.5" style="stroke:#181818;stroke-width:2;" width="83.8682" x="433.88" y="213"/><line style="stroke:#181818;stroke-width:2;" x1="433.88" x2="517.7482" y1="239.2969" y2="239.2969"/><text fill="#000000" font-family="sans-serif" font-size="14" lengthAdjust="spacing" textLength="63.8682" x="443.88" y="230.9951">Enrutado</text></g><g id="Validado_Pagador"><rect fill="#D3D3D3" height="50" rx="12.5" ry="12.5" style="stroke:#181818;stroke-width:2;" width="145.5488" x="247.04" y="292"/><line style="stroke:#181818;stroke-width:2;" x1="247.04" x2="392.5888" y1="318.2969" y2="318.2969"/><text fill="#000000" font-family="sans-serif" font-size="14" lengthAdjust="spacing" textLength="125.5488" x="257.04" y="309.9951">Validado_Pagador</text></g><g id="Aceptado"><rect fill="#D3D3D3" height="50" rx="12.5" ry="12.5" style="stroke:#181818;stroke-width:2;" width="86.2949" x="63.66" y="371"/><line style="stroke:#181818;stroke-width:2;" x1="63.66" x2="149.9549" y1="397.2969" y2="397.2969"/><text fill="#000000" font-family="sans-serif" font-size="14" lengthAdjust="spacing" textLength="66.2949" x="73.66" y="388.9951">Aceptado</text></g><g id="Rechazado"><rect fill="#D3D3D3" height="50" rx="12.5" ry="12.5" style="stroke:#181818;stroke-width:2;" width="96.8701" x="174.38" y="371"/><line style="stroke:#181818;stroke-width:2;" x1="174.38" x2="271.2501" y1="397.2969" y2="397.2969"/><text fill="#000000" font-family="sans-serif" font-size="14" lengthAdjust="spacing" textLength="76.8701" x="184.38" y="388.9951">Rechazado</text></g><g id="Cancelado"><rect fill="#D3D3D3" height="50" rx="12.5" ry="12.5" style="stroke:#181818;stroke-width:2;" width="93.459" x="501.08" y="371"/><line style="stroke:#181818;stroke-width:2;" x1="501.08" x2="594.539" y1="397.2969" y2="397.2969"/><text fill="#000000" font-family="sans-serif" font-size="14" lengthAdjust="spacing" textLength="73.459" x="511.08" y="388.9951">Cancelado</text></g><g class="entity" data-entity="GMN2" data-source-line="22" data-uid="ent0003" id="entity_GMN2"><path d="M846.75,148.18 L846.75,169.8206 A0,0 0 0 0 846.75,169.8206 L1046.8662,169.8206 A0,0 0 0 0 1046.8662,169.8206 L1046.8662,158.18 L1036.8662,148.18 L935.54,148.18 L866.25,104.52 L927.54,148.18 L846.75,148.18 A0,0 0 0 0 846.75,148.18" fill="#FAFAFA" style="stroke:#181818;stroke-width:0.5;"/><path d="M1036.8662,148.18 L1036.8662,158.18 L1046.8662,158.18 L1036.8662,148.18" fill="#FAFAFA" style="stroke:#181818;stroke-width:0.5;"/><text fill="#000000" font-family="sans-serif" font-size="10" lengthAdjust="spacing" textLength="179.1162" x="852.75" y="162.4622">Solicitud iniciada por el Beneficiario</text></g><g class="entity" data-entity="GMN5" data-source-line="25" data-uid="ent0006" id="entity_GMN5"><path d="M642.71,227.18 L642.71,248.8206 A0,0 0 0 0 642.71,248.8206 L810.9219,248.8206 A0,0 0 0 0 810.9219,248.8206 L810.9219,237.18 L800.9219,227.18 L720.51,227.18 L674.18,184.36 L712.51,227.18 L642.71,227.18 A0,0 0 0 0 642.71,227.18" fill="#FAFAFA" style="stroke:#181818;stroke-width:0.5;"/><path d="M800.9219,227.18 L800.9219,237.18 L810.9219,237.18 L800.9219,227.18" fill="#FAFAFA" style="stroke:#181818;stroke-width:0.5;"/><text fill="#000000" font-family="sans-serif" font-size="10" lengthAdjust="spacing" textLength="147.2119" x="648.71" y="241.4622">Validada por PSP Beneficiario</text></g><g class="entity" data-entity="GMN8" data-source-line="28" data-uid="ent0009" id="entity_GMN8"><path d="M466.47,306.18 L466.47,327.8206 A0,0 0 0 0 466.47,327.8206 L611.1614,327.8206 A0,0 0 0 0 611.1614,327.8206 L611.1614,316.18 L601.1614,306.18 L534.38,306.18 L495.75,263.36 L526.38,306.18 L466.47,306.18 A0,0 0 0 0 466.47,306.18" fill="#FAFAFA" style="stroke:#181818;stroke-width:0.5;"/><path d="M601.1614,306.18 L601.1614,316.18 L611.1614,316.18 L601.1614,306.18" fill="#FAFAFA" style="stroke:#181818;stroke-width:0.5;"/><text fill="#000000" font-family="sans-serif" font-size="10" lengthAdjust="spacing" textLength="123.6914" x="472.47" y="320.4622">Enrutada al PSP Pagador</text></g><g class="entity" data-entity="GMN11" data-source-line="31" data-uid="ent0012" id="entity_GMN11"><path d="M281.71,385.18 L281.71,406.8206 A0,0 0 0 0 281.71,406.8206 L431.919,406.8206 A0,0 0 0 0 431.919,406.8206 L431.919,395.18 L421.919,385.18 L355.86,385.18 L331.52,342.36 L347.86,385.18 L281.71,385.18 A0,0 0 0 0 281.71,385.18" fill="#FAFAFA" style="stroke:#181818;stroke-width:0.5;"/><path d="M421.919,385.18 L421.919,395.18 L431.919,395.18 L421.919,385.18" fill="#FAFAFA" style="stroke:#181818;stroke-width:0.5;"/><text fill="#000000" font-family="sans-serif" font-size="10" lengthAdjust="spacing" textLength="129.209" x="287.71" y="399.4622">Validada por PSP Pagador</text></g><g class="entity" data-entity="GMN14" data-source-line="34" data-uid="ent0015" id="entity_GMN14"><path d="M6,438 L6,459.6406 A0,0 0 0 0 6,459.6406 L151.624,459.6406 A0,0 0 0 0 151.624,459.6406 L151.624,448 L141.624,438 L88.24,438 L93.47,421.22 L80.24,438 L6,438 A0,0 0 0 0 6,438" fill="#FAFAFA" style="stroke:#181818;stroke-width:0.5;"/><path d="M141.624,438 L141.624,448 L151.624,448 L141.624,438" fill="#FAFAFA" style="stroke:#181818;stroke-width:0.5;"/><text fill="#000000" font-family="sans-serif" font-size="10" lengthAdjust="spacing" textLength="124.624" x="12" y="452.2822">Aprobada por el Pagador</text></g><g class="entity" data-entity="GMN17" data-source-line="37" data-uid="ent0018" id="entity_GMN17"><path d="M161.73,438 L161.73,459.6406 A0,0 0 0 0 161.73,459.6406 L313.9019,459.6406 A0,0 0 0 0 313.9019,459.6406 L313.9019,448 L303.9019,438 L238.91,438 L229.96,421.22 L230.91,438 L161.73,438 A0,0 0 0 0 161.73,438" fill="#FAFAFA" style="stroke:#181818;stroke-width:0.5;"/><path d="M303.9019,438 L303.9019,448 L313.9019,448 L303.9019,438" fill="#FAFAFA" style="stroke:#181818;stroke-width:0.5;"/><text fill="#000000" font-family="sans-serif" font-size="10" lengthAdjust="spacing" textLength="131.1719" x="167.73" y="452.2822">Rechazada por el Pagador</text></g><g class="entity" data-entity="GMN20" data-source-line="40" data-uid="ent0021" id="entity_GMN20"><path d="M461.89,438 L461.89,459.6406 A0,0 0 0 0 461.89,459.6406 L633.7298,459.6406 A0,0 0 0 0 633.7298,459.6406 L633.7298,448 L623.7298,438 L551.81,438 L547.81,421.22 L543.81,438 L461.89,438 A0,0 0 0 0 461.89,438" fill="#FAFAFA" style="stroke:#181818;stroke-width:0.5;"/><path d="M623.7298,438 L623.7298,448 L633.7298,448 L623.7298,438" fill="#FAFAFA" style="stroke:#181818;stroke-width:0.5;"/><text fill="#000000" font-family="sans-serif" font-size="10" lengthAdjust="spacing" textLength="150.8398" x="467.89" y="452.2822">Cancelada por cualquier actor</text></g><!--link *start* to Creado--><g class="link" data-entity-1=".start." data-entity-2="Creado" data-source-line="10" data-uid="lnk4" id="link_.start._Creado"><path d="M830.81,26.42 C830.81,33.94 830.81,38.82 830.81,48.74" fill="none" id="*start*-to-Creado" style="stroke:#181818;stroke-width:1;"/><polygon fill="#181818" points="830.81,54.74,834.81,45.74,830.81,49.74,826.81,45.74,830.81,54.74" style="stroke:#181818;stroke-width:1;"/><text fill="#000000" font-family="sans-serif" font-size="10" lengthAdjust="spacing" textLength="26.001" x="831.81" y="44.2822">crear</text></g><!--link Creado to Validado_Beneficiario--><g class="link" data-entity-1="Creado" data-entity-2="Validado_Beneficiario" data-source-line="11" data-uid="lnk6" id="link_Creado_Validado_Beneficiario"><path d="M795.3,89.18 C774.08,94.66 746.84,102.76 723.81,113 C710.9,118.74 702.5906,123.1802 690.7906,130.4902" fill="none" id="Creado-to-Validado_Beneficiario" style="stroke:#181818;stroke-width:1;"/><polygon fill="#181818" points="685.69,133.65,695.4474,132.3107,689.9405,131.0169,691.2344,125.51,685.69,133.65" style="stroke:#181818;stroke-width:1;"/><text fill="#000000" font-family="sans-serif" font-size="10" lengthAdjust="spacing" textLength="97.8906" x="724.81" y="123.2822">validar_beneficiario</text></g><!--link Validado_Beneficiario to Enrutado--><g class="link" data-entity-1="Validado_Beneficiario" data-entity-2="Enrutado" data-source-line="12" data-uid="lnk8" id="link_Validado_Beneficiario_Enrutado"><path d="M594.76,184.36 C569.97,195.33 546.6463,205.6509 523.5863,215.8609" fill="none" id="Validado_Beneficiario-to-Enrutado" style="stroke:#181818;stroke-width:1;"/><polygon fill="#181818" points="518.1,218.29,527.9488,218.3039,522.6719,216.2657,524.71,210.9888,518.1,218.29" style="stroke:#181818;stroke-width:1;"/><text fill="#000000" font-family="sans-serif" font-size="10" lengthAdjust="spacing" textLength="37.0996" x="574.81" y="202.2822">enrutar</text></g><!--link Enrutado to Validado_Pagador--><g class="link" data-entity-1="Enrutado" data-entity-2="Validado_Pagador" data-source-line="13" data-uid="lnk10" id="link_Enrutado_Validado_Pagador"><path d="M433.41,242.21 C393.26,246.21 337.06,254.61 322.81,271 C317.88,276.67 316.3505,278.4212 316.2005,285.8912" fill="none" id="Enrutado-to-Validado_Pagador" style="stroke:#181818;stroke-width:1;"/><polygon fill="#181818" points="316.08,291.89,320.2599,282.9721,316.1804,286.891,312.2615,282.8115,316.08,291.89" style="stroke:#181818;stroke-width:1;"/><text fill="#000000" font-family="sans-serif" font-size="10" lengthAdjust="spacing" textLength="80.7178" x="323.81" y="281.2822">validar_pagador</text></g><!--link Validado_Pagador to Aceptado--><g class="link" data-entity-1="Validado_Pagador" data-entity-2="Aceptado" data-source-line="14" data-uid="lnk12" id="link_Validado_Pagador_Aceptado"><path d="M246.57,342.03 C238.87,344.67 231.17,347.36 223.81,350 C199.33,358.78 177.7986,366.9865 155.8386,375.5665" fill="none" id="Validado_Pagador-to-Aceptado" style="stroke:#181818;stroke-width:1;"/><polygon fill="#181818" points="150.25,377.75,160.0886,378.2004,154.9072,375.9304,157.1772,370.749,150.25,377.75" style="stroke:#181818;stroke-width:1;"/><text fill="#000000" font-family="sans-serif" font-size="10" lengthAdjust="spacing" textLength="38.2861" x="224.81" y="360.2822">aceptar</text></g><!--link Validado_Pagador to Rechazado--><g class="link" data-entity-1="Validado_Pagador" data-entity-2="Rechazado" data-source-line="15" data-uid="lnk14" id="link_Validado_Pagador_Rechazado"><path d="M289.12,342.36 C277.8,351.35 269.6681,357.798 258.3381,366.798" fill="none" id="Validado_Pagador-to-Rechazado" style="stroke:#181818;stroke-width:1;"/><polygon fill="#181818" points="253.64,370.53,263.1752,368.0641,257.5551,367.42,258.1992,361.8,253.64,370.53" style="stroke:#181818;stroke-width:1;"/><text fill="#000000" font-family="sans-serif" font-size="10" lengthAdjust="spacing" textLength="43.7158" x="278.81" y="360.2822">rechazar</text></g><!--link Creado to Cancelado--><g class="link" data-entity-1="Creado" data-entity-2="Cancelado" data-source-line="16" data-uid="lnk16" id="link_Creado_Cancelado"><path d="M830.81,105.28 C830.81,120.43 830.81,140.35 830.81,158 C830.81,158 830.81,158 830.81,318 C830.81,366.31 681.31,384.8203 600.84,391.4103" fill="none" id="Creado-to-Cancelado" style="stroke:#181818;stroke-width:1;"/><polygon fill="#181818" points="594.86,391.9,604.1565,395.1521,599.8433,391.4919,603.5035,387.1788,594.86,391.9" style="stroke:#181818;stroke-width:1;"/><text fill="#000000" font-family="sans-serif" font-size="10" lengthAdjust="spacing" textLength="42.6318" x="831.81" y="241.7822">cancelar</text></g><!--link Validado_Beneficiario to Cancelado--><g class="link" data-entity-1="Validado_Beneficiario" data-entity-2="Cancelado" data-source-line="17" data-uid="lnk17" id="link_Validado_Beneficiario_Cancelado"><path d="M643.98,184.48 C641.92,193.43 639.67,203.65 637.81,213 C626.5,270.05 645.66,292.08 615.81,342 C609.21,353.05 604.1089,358.9699 593.9489,366.8599" fill="none" id="Validado_Beneficiario-to-Cancelado" style="stroke:#181818;stroke-width:1;"/><polygon fill="#181818" points="589.21,370.54,598.7717,368.1791,593.1591,367.4733,593.8649,361.8606,589.21,370.54" style="stroke:#181818;stroke-width:1;"/><text fill="#000000" font-family="sans-serif" font-size="10" lengthAdjust="spacing" textLength="42.6318" x="634.81" y="281.2822">cancelar</text></g><!--link Enrutado to Cancelado--><g class="link" data-entity-1="Enrutado" data-entity-2="Cancelado" data-source-line="18" data-uid="lnk18" id="link_Enrutado_Cancelado"><path d="M439.92,263.33 C431.02,271.32 422.65,281.02 417.81,292 C408.85,312.33 405.41,323.56 417.81,342 C436.24,369.41 465.7189,381.3665 494.8989,387.7565" fill="none" id="Enrutado-to-Cancelado" style="stroke:#181818;stroke-width:1;"/><polygon fill="#181818" points="500.76,389.04,492.824,383.2073,495.8757,387.9704,491.1127,391.0222,500.76,389.04" style="stroke:#181818;stroke-width:1;"/><text fill="#000000" font-family="sans-serif" font-size="10" lengthAdjust="spacing" textLength="42.6318" x="418.81" y="320.7822">cancelar</text></g><!--link Validado_Pagador to Cancelado--><g class="link" data-entity-1="Validado_Pagador" data-entity-2="Cancelado" data-source-line="19" data-uid="lnk19" id="link_Validado_Pagador_Cancelado"><path d="M339.12,342.16 C347.02,351.38 355.53,360.33 360.81,363 C391.12,378.33 403.28,365.62 436.81,371 C457.93,374.38 475.2373,377.8889 494.9073,382.3289" fill="none" id="Validado_Pagador-to-Cancelado" style="stroke:#181818;stroke-width:1;"/><polygon fill="#181818" points="500.76,383.65,492.8616,377.7665,495.8827,382.5491,491.1001,385.5702,500.76,383.65" style="stroke:#181818;stroke-width:1;"/><text fill="#000000" font-family="sans-serif" font-size="10" lengthAdjust="spacing" textLength="42.6318" x="361.81" y="360.2822">cancelar</text></g><!--SRC=[ZL9DJyCm3BtdLrZYXZG942SEIDi4vuaXBWXDNk9rKTkuk2c8_NhIJwLROJlrzVcz5pjEcLfNe60EEJlMU-6Sm4j5gXmgfKTF2nP3yhgtEdLKbd1t8a2T9iALCqlEME0giydU9u8_nyfdTdvj3mItzr79SLov6LKCbLICIK6Ndf0emjznY7g__e3Px16MGcWO7a078AhxhIjlc5aJVZOBShIpsgBOMlZLyBBPHhIQ5jSnJqugtnv13HGrKADZLfY4ZqGd52sZJYIrRwwfw7AnWN_eNaZlyT0AfSMZCPVeD6NT7RHO_XbdKZuQwF_0gBL9eQhN3LlsddFWNRSV1R3cBFJXAmFMrGqPX2BaK0PnZugSQLxCSSxaH26suzkmrNfrMLe_S0Ze809cZRyRy7mZlN2YXtCP_Uw3Tru8RwFBE6STdaFmzlXYyx2nOEvnQzOLPf-L9GcFqKS9lm00]--></g></svg>